<svg height="232" viewBox="0 0 640 232" width="640" xmlns="http://www.w3.org/2000/svg"><g fill="none" fill-rule="evenodd"><path d="m0 0h640v232h-640z" fill="#f5fcff"/><path d="m640 0v232h-640v-232zm-1 1h-638v230h638z" fill="#10162f" fill-rule="nonzero"/><g transform="translate(227.213699 40.339844)"><path d="m50.7540741 81.7890625 52.4384769-34.6669922 17.009765 63.7763677-47.7080075 41.236328z" fill="#ffd300"/><path d="m50.7540741 81.7890625 52.4384769-34.6669922-51.7890628-2.7050781-50.78906251 29.9414062z" fill="#10162f"/><ellipse cx="73.786301" cy="94.160156" fill="#10162f" rx="6" ry="8.5"/><ellipse cx="51.648482" cy="60.679525" fill="#f5fcff" rx="8" ry="3" transform="matrix(.9612617 -.27563736 .27563736 .9612617 -14.724769 16.586873)"/><ellipse cx="77.648482" cy="53.679525" fill="#f5fcff" rx="8" ry="3" transform="matrix(.9612617 -.27563736 .27563736 .9612617 -11.788112 23.482276)"/><path d="m.61442569 74.3583984 50.13964841 7.4306641 21.7402344 70.3457035-48.9140625-15.947266z" fill="#ff8c00"/><ellipse cx="25.648482" cy="67.679525" fill="#f5fcff" rx="8" ry="3" transform="matrix(.9612617 -.27563736 .27563736 .9612617 -17.661427 9.69147)"/><ellipse cx="51.648482" cy="52.679525" fill="#f5fcff" rx="8" ry="3" transform="matrix(.9612617 -.27563736 .27563736 .9612617 -12.51967 16.276966)"/><ellipse cx="51.648482" cy="70.679525" fill="#f5fcff" rx="8" ry="3" transform="matrix(.9612617 -.27563736 .27563736 .9612617 -17.481143 16.974256)"/><g fill="#10162f"><ellipse cx="81.786301" cy="123.160156" rx="6" ry="8.5"/><ellipse cx="95.786301" cy="75.160156" rx="6" ry="8.5"/><ellipse cx="103.786301" cy="104.160156" rx="6" ry="8.5"/><ellipse cx="30.786301" cy="99.660156" rx="4" ry="8" transform="matrix(-.8660254 .5 .5 .8660254 7.617942 -2.041221)"/><ellipse cx="40.786301" cy="126.660156" rx="4" ry="8" transform="matrix(-.8660254 .5 .5 .8660254 12.778196 -3.423907)"/><ellipse cx="16.786301" cy="96.660156" rx="4" ry="8" transform="matrix(-.8660254 .5 .5 .8660254 -17.006414 4.556855)"/><ellipse cx="26.786301" cy="123.660156" rx="4" ry="8" transform="matrix(-.8660254 .5 .5 .8660254 -11.84616 3.174169)"/><ellipse cx="44.786301" cy="102.660156" rx="4" ry="8" transform="matrix(-.8660254 .5 .5 .8660254 32.242297 -8.639298)"/><ellipse cx="54.786301" cy="129.660156" rx="4" ry="8" transform="matrix(-.8660254 .5 .5 .8660254 37.402551 -10.021983)"/><g fill-rule="nonzero"><path d="m103.581916 46.6417263-52.3026745-2.7319054-51.2792415 30.2303788 23.1956331 62.4478083 49.412074 16.109631 48.1583849-41.625611zm-52.0554903-1.7177263 51.2770003 2.678 16.834 63.123-47.2580003 40.846-48.415-15.784-22.73600002-61.211z"/><path d="m102.916811 46.7049764.55148.8341879-52.5981602 34.7725587-50.32900423-7.4587265.14659823-.9891961 49.9492752 7.4021996z"/></g></g><path d="m80.7863007 45.8027344 11.024-37.02343752 49.1400623 38.34277342-21.748047 57.0380857-1.206543-1.5-14.209472-55.5380857z" fill="#aee938"/><path d="m51.2317812 81.6414279 21.7402343 70.3457031-.955414.295269-21.7402344-70.3457029z" fill="#10162f" fill-rule="nonzero"/><path d="m91.8103007 8.77929688 45.5258043-8.77929688 47.809571 32.1738281-44.195313 14.9482422z" fill="#ff8c00"/><g fill="#10162f"><ellipse cx="121.786301" cy="52.660156" rx="5" ry="8" transform="matrix(.96592583 -.25881905 .25881905 .96592583 -9.479684 33.314965)"/><ellipse cx="117.286301" cy="14.794131" rx="7" ry="4" transform="matrix(.92718385 .37460659 -.37460659 .92718385 14.082315 -42.85897)"/><path d="m140.950363 47.1220703 44.195313-14.9969579-22.624024 51.5350439-43.319336 20.4999997z"/><ellipse cx="140.286301" cy="30.794131" rx="7" ry="4" transform="matrix(.92718385 .37460659 -.37460659 .92718385 21.750792 -50.309863)"/><ellipse cx="138.286301" cy="9.794131" rx="7" ry="4" transform="matrix(.92718385 .37460659 -.37460659 .92718385 13.738421 -51.089789)"/><ellipse cx="161.286301" cy="25.794131" rx="7" ry="4" transform="matrix(.92718385 .37460659 -.37460659 .92718385 21.406898 -58.540683)"/></g><ellipse cx="153.487263" cy="67.910156" fill="#f5fcff" rx="3.5" ry="8" transform="matrix(.8660254 .5 -.5 .8660254 54.518472 -67.645396)"/><path d="m91.417684 8.34579778 46.026372-8.87582737 48.327508 32.52237839-22.867269 52.0398899-43.488103 20.5798663-.213876.048051h-.6875v-1l.574184-.000156 43.049-20.372 22.381-50.934-47.292-31.825-45.025 8.683-10.9364914 36.733422-.9584158-.2853753z" fill="#10162f" fill-rule="nonzero"/><path d="m92.117884 8.38509834 48.927116 38.17690166 43.940475-14.861813.320401.9472822-44.450615 15.0345935-49.3525437-38.50856729z" fill="#10162f" fill-rule="nonzero"/><path d="m140.483172 46.9439349.934383.3562708-21.748047 57.0380863-.934383-.356271z" fill="#10162f" fill-rule="nonzero"/></g></g></svg>