<svg height="232" viewBox="0 0 640 232" width="640" xmlns="http://www.w3.org/2000/svg"><g fill="none" fill-rule="evenodd"><path d="m0 0h640v232h-640z" fill="#f5fcff"/><path d="m.5.5h639v231h-639z" stroke="#10162f"/><g transform="translate(244 38)"><path d="m153.012013 29.3399067-62.7797508-29.86161228-89.32999357 16.96612908v99.5263395l60.16035307 40.094396 89.6848673-26.406463zm-62.914013-28.8189067 61.899 29.443-2.234 98.941-88.536 26.068-59.325-39.537v-98.164z" fill="#f5fcff" fill-rule="nonzero"/><path d="m90.1650391 0-88.76277047 16.8583984v98.8447266l59.74323917 39.816406 89.1103512-26.237304 2.248974-99.6298833z" fill="#10162f"/><path d="m1.63512224 16.415929 59.58387776 31.356071 91.185844-18.6095565.199978.9798005-91.5342126 18.6821789-59.90119438-31.523555z" fill="#f5fcff" fill-rule="nonzero"/><path d="m61.6455078 48.2988281v107.2207029h-1v-107.2207029z" fill="#f5fcff" fill-rule="nonzero"/><path d="m109.464427 7.40815022.196146.98057456-89.964573 17.99527522.0002891 101.601352h-1v-102.4206315z" fill="#f5fcff" fill-rule="nonzero"/><path d="m129.399197 17.7096874.203559.9790627-89.906756 18.6922499.0002891 104.732281h-1v-105.5454083z" fill="#f5fcff" fill-rule="nonzero"/><path d="m.26026316 48.5950498 60.97073684 37.1689502 91.159344-21.4430986.228978.9734316-91.5589641 21.5371949-61.32062106-37.3826324z" fill="#f5fcff" fill-rule="nonzero"/><path d="m.2619842 84.2567483 60.9650158 37.5032517 91.154066-23.2874085.247533.9688795-91.56461 23.393267-61.3259732-37.726252z" fill="#f5fcff" fill-rule="nonzero"/><path d="m32.0384709 9.8711429.4621207-.88681705 61.9857365 32.30078905v104.2627371h-1l-.0003281-103.656852z" fill="#f5fcff" fill-rule="nonzero"/><path d="m64.4391084 4.71703247.4538145-.89109619 60.5963991 30.86033092-1.003018 102.9895008-.999952-.009739.996648-102.371029z" fill="#f5fcff" fill-rule="nonzero"/><g fill="#1557ff"><path d="m42.8803649 41.6475081 12.5727294 6.851487c1.60726.8758736 2.6074526 2.5599914 2.6074526 4.3904119v25.5516116c0 .5522848-.4477153 1-1 1-.1779688 0-.3527134-.0474948-.5061969-.1375821l-12.683479-7.4445779c-1.52952-.897753-2.4690155-2.5385644-2.4690155-4.3120897v-25.0211785c0-.5522847.4477152-1 1-1 .1671868 0 .3317056.0419172.4785094.1219177z"/><path d="m43.6612445 78.7065536 12.0341381 7.4617043c1.4705586.9118122 2.3651643 2.5191265 2.3651643 4.2494283v24.0329508c0 .552285-.4477153 1-1 1-.176351 0-.3495657-.046636-.502078-.135178l-11.9345813-6.928694c-1.5411477-.894723-2.4896103-2.542073-2.4896103-4.324112v-24.5062137c0-.5522848.4477153-1 1-1 .186206 0 .3687134.0519899.5269672.1501143z"/><path d="m43.6612445 114.706554 12.0341381 7.461704c1.4705586.911812 2.3651643 2.519126 2.3651643 4.249428v21.970597c0 .552285-.4477153 1-1 1-.1950455 0-.3858334-.057039-.5488731-.164094l-12.1217618-7.959401c-1.4077896-.924384-2.2556347-2.49538-2.2556347-4.179529v-21.52882c0-.552284.4477153-1 1-1 .186206 0 .3687134.05199.5269672.150115z"/><path d="m22.870666 31.1335747 11.0954572 5.888911c1.6342561.867381 2.6559471 2.5663199 2.6559471 4.4164936v24.4199638c0 .5522848-.4477152 1-1 1-.1916473 0-.3792584-.0550704-.5404997-.1586558l-11.3822138-7.3122078c-1.4318525-.9198565-2.2975013-2.504858-2.2975013-4.2067209v-23.1644851c0-.5522848.4477152-1 1-1 .1634595 0 .324427.0400697.4688105.1167012z"/><path d="m22.9265836 66.2938559 11.3191272 6.977181c1.4769408.9103956 2.3763595 2.5213641 2.3763595 4.2563495v24.1649206c0 .552285-.4477152 1-1 1-.1864073 0-.369104-.052102-.5274707-.150427l-11.3300978-7.0344669c-1.4691223-.9121275-2.3626463-2.5186185-2.3626463-4.2478661v-24.1144212c0-.5522848.4477152-1 1-1 .1853114 0 .366978.051492.5247281.1487301z"/><path d="m22.9265836 102.293856 11.3191272 6.977181c1.4769408.910396 2.3763595 2.521364 2.3763595 4.256349v20.446171c0 .552285-.4477152 1-1 1-.1864073 0-.369104-.052102-.5274707-.150427l-11.3300978-7.034467c-1.4691223-.912127-2.3626463-2.518618-2.3626463-4.247866v-20.395671c0-.552285.4477152-1 1-1 .1853114 0 .366978.051492.5247281.14873z"/><path d="m5.06787688 21.9589363 9.16408562 4.7152691c1.6655108.8569684 2.7123734 2.5729317 2.7123734 4.445983v22.4478168c0 .5522848-.4477152 1-1 1-.1816112 0-.3597938-.0494575-.515423-.1430641l-9.39567645-5.6512372c-1.50339666-.9042511-2.42288489-2.530293-2.42288489-4.2846794v-21.6408916c0-.5522847.44771525-1 1-1 .15915285 0 .31600715.037987.45752532.1108034z"/><path d="m5.12505969 55.4654875 9.39281691 5.6388546c1.5054247.903762 2.4264593 2.5309545 2.4264593 4.2868273v24.0636337c0 .5522847-.4477152 1-1 1-.1801468 0-.3569483-.0486637-.5117216-.1408487l-9.38087113-5.5873689c-1.51388982-.9016924-2.44139161-2.5336804-2.44139161-4.2957564v-24.1079761c0-.5522848.44771525-1 1-1 .18132804 0 .35924373.0493035.51470813.1426345z"/><path d="m5.12505969 91.4654875 9.39281691 5.6388546c1.5054247.903762 2.4264593 2.5309545 2.4264593 4.2868269v19.14713c0 .552285-.4477152 1-1 1-.1801468 0-.3569483-.048663-.5117216-.140849l-9.38087113-5.587368c-1.51388982-.901693-2.44139161-2.533681-2.44139161-4.295757v-19.191472c0-.5522848.44771525-1 1-1 .18132804 0 .35924373.0493035.51470813.1426345z"/></g><g fill="#ffd300"><path d="m68.7295793 50.4620534 17.6116037-3.3578455c2.1700487-.4137436 4.2646262 1.010023 4.6783698 3.1800716.0470813.2469375.0707792.4977634.0707792.7491491v19.786914c0 2.3143553-1.5882841 4.3262495-3.8394311 4.8634433l-17.6564302 4.2133736c-2.1488044.5127715-4.3064381-.8134951-4.8192096-2.9622995-.07258-.3041512-.1092455-.6157639-.1092455-.9284551v-20.6328256c0-2.4003279 1.7057091-4.4619751 4.0635637-4.9115259z"/><path d="m68.4312938 87.8681055 17.6712608-4.5032865c2.1407212-.5455345 4.3183617.7476199 4.8638961 2.8883411.0822653.322816.1238813.6546443.1238813.9877775v20.2136824c0 2.314355-1.5882841 4.326249-3.8394311 4.863443l-17.6564302 4.213374c-2.1488044.512771-4.3064381-.813495-4.8192096-2.9623-.07258-.304151-.1092455-.615764-.1092455-.928455v-19.9274282c0-2.2858656 1.5502067-4.2806667 3.7652782-4.8451483z"/><path d="m68.4312938 123.481875 17.6712608-4.503287c2.1407212-.545534 4.3183617.74762 4.8638961 2.888342.0822653.322816.1238813.654644.1238813.987777v17.363075c0 2.270686-1.5300896 4.256259-3.7258053 4.834918l-17.6791553 4.659166c-2.136201.562975-4.3243152-.712377-4.8872898-2.848578-.0876776-.332691-.132066-.675305-.132066-1.019356v-17.516909c0-2.285865 1.5502067-4.280666 3.7652782-4.845148z"/><path d="m101.190062 43.4053918 16.453665-3.4265807c2.162737-.4504038 4.281106.9377165 4.73151 3.1004536.063117.3030747.090837.6124521.082603.9219198l-.549994 20.6707732c-.060937 2.290247-1.670642 4.2460625-3.90641 4.7463473l-15.918507 3.561991c-2.1558265.4823967-4.2945291-.8741863-4.7769258-3.030013-.0641584-.2867233-.0965305-.5796427-.0965305-.8734565v-20.7764574c0-2.3685171 1.6618222-4.4120792 3.9805893-4.8949773z"/><path d="m101.052179 80.1589877 15.826186-3.7653564c2.149149-.5113243 4.305889.8163951 4.817213 2.9655444.072167.3033234.108621.6140444.108621.9258346v19.3671467c0 2.263703-1.520876 4.245003-3.707658 4.830099l-15.853195 4.241681c-2.134072.570993-4.3269599-.696134-4.8979523-2.830205-.0902258-.337218-.135921-.684795-.135921-1.033874v-19.8366466c0-2.315613 1.5899748-4.3282551 3.8427063-4.8642237z"/><path d="m100.984465 115.153469 15.005081-3.791832c2.14181-.541243 4.316854.756274 4.858096 2.898085.089013.352243.129622.714971.120705 1.078178l-.408152 16.625051c-.053793 2.191128-1.528353 4.091791-3.637365 4.688452l-14.624454 4.137409c-2.125708.601385-4.3364524-.634323-4.937837-2.76003-.1002309-.354285-.1510663-.720713-.1510663-1.088903v-16.938796c0-2.2896 1.5551735-4.286659 3.7749923-4.847614z"/><path d="m131.724931 37.5111841 13.798378-2.57333c2.171696-.4050106 4.260529 1.0271705 4.665539 3.1988661.054649.2930309.076372.5912523.064763.8891095l-.736702 18.9029867c-.088275 2.2650376-1.689252 4.1873194-3.900958 4.6838522l-13.09815 2.9405632c-2.155487.4839116-4.295143-.8711681-4.779054-3.0266553-.064566-.2875951-.097145-.5814457-.097145-.8761994v-19.2239397c0-2.4079045 1.716237-4.4738022 4.083329-4.9152533z"/><path d="m131.449837 73.1361594 12.783527-3.1374142c2.145468-.5265546 4.311571.7858346 4.838126 2.9313032.087616.3569966.125604.7243668.112893 1.091738l-.650368 18.7954472c-.077558 2.2414049-1.63811 4.1569542-3.817567 4.6859922l-12.131292 2.9447322c-2.146798.521111-4.309564-.796769-4.830675-2.9435664-.074986-.3089153-.112879-.625668-.112879-.943554v-18.5687851c0-2.3023739 1.572219-4.3071158 3.808235-4.8558931z"/><path d="m131.397834 107.857566 11.796676-3.029697c2.139699-.549531 4.31975.739554 4.869281 2.879253.096912.377345.138177.766824.122488 1.156099l-.574767 14.260789c-.088351 2.192113-1.595384 4.07057-3.716199 4.632095l-11.229916 2.973324c-2.135553.565427-4.32513-.707413-4.890557-2.842966-.088453-.334076-.133238-.678207-.133238-1.023795v-14.162268c0-2.282388 1.545587-4.275082 3.756232-4.842834z"/></g><path d="m49.944305 38.9030584 9.6179199 5.1324233c1.0235554.5462013 2.2051969.7194605 3.3424709.4900928l20.0092709-4.0355101c.5413839-.1091874.8917484-.6365796.782561-1.1779635-.0581264-.2882083-.240139-.5362335-.4976431-.678129l-9.3809484-5.1692967c-1.0380985-.5720359-2.2456539-.7566872-3.4072616-.5210156l-20.1944098 4.0971216c-.5412575.1098125-.8910128.637609-.7812003 1.1788665.0593145.2923569.2460555.5429669.5092405.6834107z" fill="#e91c11"/><path d="m28.944305 27.9030584 9.6179199 5.1324233c1.0235554.5462013 2.2051969.7194605 3.3424709.4900928l20.0092709-4.0355101c.5413839-.1091874.8917484-.6365796.782561-1.1779635-.0581264-.2882083-.240139-.5362335-.4976431-.678129l-9.3809484-5.1692967c-1.0380985-.5720359-2.2456539-.7566872-3.4072616-.5210156l-20.1944098 4.0971216c-.5412575.1098125-.8910128.637609-.7812003 1.1788665.0593145.2923569.2460555.5429669.5092405.6834107z" fill="#e91c11"/><path d="m10.3846716 18.7399984 7.5181439 3.8467512c1.0114244.5175078 2.1689384.6751268 3.2819099.4468987l20.732929-4.2515354c.5410267-.110944.8896776-.6394706.7787336-1.1804973-.0623385-.3039985-.262278-.5618291-.5411869-.6978842l-7.1982909-3.5114106c-.960281-.4684363-2.0453652-.6169456-3.0961988-.4237591l-21.2013508 3.8976831c-.5431819.0998593-.90256595.6211471-.80270671 1.164329.05619666.3056804.25132971.5678537.52801771.7094246z" fill="#e91c11"/><path d="m82.8289852 32.4760527 10.4117037 5.4270189c1.0252013.5343782 2.2039063.6969724 3.3354952.4601085l18.0253449-3.7730605c.540569-.1131518.88706-.6430974.773908-1.1836666-.061202-.2923859-.249914-.5421001-.514486-.6807976l-10.331972-5.4163688c-1.025805-.537762-2.206488-.7027195-3.340401-.4666999l-18.1011517 3.7676835c-.5406962.1125438-.8877823.6420994-.7752385 1.1827955.0611212.2936455.2508218.5443493.5167974.682987z" fill="#e91c11"/><path d="m61.4938526 21.6870133 9.7090426 4.9119241c1.0227149.517404 2.1921429.6677366 3.3124694.4258254l18.3965337-3.9723492c.5398429-.1165679.8829751-.648694.7664072-1.1885369-.063475-.2939622-.2558769-.5437487-.5238998-.6801547l-9.6299531-4.9010134c-1.0234196-.5208533-2.1949351-.673557-3.3176742-.4324493l-18.4714594 3.9667376c-.539974.1159592-.8837059.6476981-.7677468 1.1876721.0634034.2952431.2568266.5460244.5262804.6823443z" fill="#e91c11"/><path d="m43.7311854 12.3063184 6.7253441 3.7058827c.9940964.5477793 2.144987.7410287 3.263478.5479799l19.6090169-3.3844682c.5442378-.0939341.9092811-.6112747.815347-1.1555125-.0531313-.3078333-.2470633-.5731529-.5242435-.7172206l-7.6939551-3.99902353c-1.0016203-.5206039-2.1499332-.68695256-3.2581115-.47198151l-18.644699 3.61681034c-.5421777.1051748-.8964385.6299578-.7912636 1.1721355.056484.2911758.2393112.5422531.4990867.6853979z" fill="#e91c11"/><path d="m114.470176 26.3483544 10.094868 4.7781008c.950303.4497971 2.018213.5885875 3.051919.3966413l14.425651-2.67866c.543003-.1008287.901455-.6227572.800627-1.16576-.059458-.3202016-.271117-.5913915-.567288-.7268414l-11.238249-5.1396589c-.996791-.4558689-2.115764-.5715632-3.184739-.329281l-13.176014 2.9863298c-.538624.1220785-.8763.6576833-.754222 1.1963068.067908.299616.269766.5513906.547447.6828226z" fill="#e91c11"/><path d="m91.5060817 15.3998035 10.2200893 4.9700705c.986332.4796572 2.103015.6216973 3.178019.4042383l14.614608-2.9563417c.541321-.109502.891379-.6370977.781877-1.1784181-.06423-.3175196-.278292-.5842532-.574375-.7157035l-11.048906-4.9053226c-.950058-.4217922-2.007956-.536995-3.026534-.3295827l-13.9069798 2.8318694c-.5411788.1101999-.8905562.6382466-.7803563 1.1794253.0621023.3049771.2626635.5636514.5425578.6997651z" fill="#e91c11"/><path d="m73.200443 6.33762047 9.070402 4.10109263c.9639685.4358489 2.0413403.5547093 3.0771382.3394835l14.06833-2.92322184c.5407348-.11235789.8880028-.64179414.7756448-1.18252896-.062586-.30120319-.2603257-.55683627-.5361363-.69310413l-7.9907798-3.94795062c-.9722728-.48036423-2.0743663-.63159806-3.1400977-.43089716l-15.0975846 2.84321075c-.5427443.10221082-.8998672.62505026-.7976564 1.16779458.0603874.32066009.2734214.59169168.5707398.72612125z" fill="#e91c11"/></g></g></svg>