<?xml version="1.0" encoding="utf-8" standalone="no"?>
<!DOCTYPE svg PUBLIC "-//W3C//DTD SVG 1.1//EN"
  "http://www.w3.org/Graphics/SVG/1.1/DTD/svg11.dtd">
<!-- Created with matplotlib (https://matplotlib.org/) -->
<svg height="288pt" version="1.1" viewBox="0 0 432 288" width="432pt" xmlns="http://www.w3.org/2000/svg" xmlns:xlink="http://www.w3.org/1999/xlink">
 <defs>
  <style type="text/css">
*{stroke-linecap:butt;stroke-linejoin:round;}
  </style>
 </defs>
 <g id="figure_1">
  <g id="patch_1">
   <path d="M 0 288 
L 432 288 
L 432 0 
L 0 0 
z
" style="fill:#ffffff;"/>
  </g>
  <g id="axes_1">
   <g id="patch_2">
    <path d="M 54 252 
L 388.8 252 
L 388.8 34.56 
L 54 34.56 
z
" style="fill:#ffffff;"/>
   </g>
   <g id="matplotlib.axis_1">
    <g id="xtick_1">
     <g id="line2d_1">
      <defs>
       <path d="M 0 0 
L 0 3.5 
" id="m26974cdd7e" style="stroke:#000000;stroke-width:0.8;"/>
      </defs>
      <g>
       <use style="stroke:#000000;stroke-width:0.8;" x="69.218182" xlink:href="#m26974cdd7e" y="252"/>
      </g>
     </g>
     <g id="text_1">
      <!-- 2016 -->
      <defs>
       <path d="M 19.1875 8.296875 
L 53.609375 8.296875 
L 53.609375 0 
L 7.328125 0 
L 7.328125 8.296875 
Q 12.9375 14.109375 22.625 23.890625 
Q 32.328125 33.6875 34.8125 36.53125 
Q 39.546875 41.84375 41.421875 45.53125 
Q 43.3125 49.21875 43.3125 52.78125 
Q 43.3125 58.59375 39.234375 62.25 
Q 35.15625 65.921875 28.609375 65.921875 
Q 23.96875 65.921875 18.8125 64.3125 
Q 13.671875 62.703125 7.8125 59.421875 
L 7.8125 69.390625 
Q 13.765625 71.78125 18.9375 73 
Q 24.125 74.21875 28.421875 74.21875 
Q 39.75 74.21875 46.484375 68.546875 
Q 53.21875 62.890625 53.21875 53.421875 
Q 53.21875 48.921875 51.53125 44.890625 
Q 49.859375 40.875 45.40625 35.40625 
Q 44.1875 33.984375 37.640625 27.21875 
Q 31.109375 20.453125 19.1875 8.296875 
z
" id="DejaVuSans-50"/>
       <path d="M 31.78125 66.40625 
Q 24.171875 66.40625 20.328125 58.90625 
Q 16.5 51.421875 16.5 36.375 
Q 16.5 21.390625 20.328125 13.890625 
Q 24.171875 6.390625 31.78125 6.390625 
Q 39.453125 6.390625 43.28125 13.890625 
Q 47.125 21.390625 47.125 36.375 
Q 47.125 51.421875 43.28125 58.90625 
Q 39.453125 66.40625 31.78125 66.40625 
z
M 31.78125 74.21875 
Q 44.046875 74.21875 50.515625 64.515625 
Q 56.984375 54.828125 56.984375 36.375 
Q 56.984375 17.96875 50.515625 8.265625 
Q 44.046875 -1.421875 31.78125 -1.421875 
Q 19.53125 -1.421875 13.0625 8.265625 
Q 6.59375 17.96875 6.59375 36.375 
Q 6.59375 54.828125 13.0625 64.515625 
Q 19.53125 74.21875 31.78125 74.21875 
z
" id="DejaVuSans-48"/>
       <path d="M 12.40625 8.296875 
L 28.515625 8.296875 
L 28.515625 63.921875 
L 10.984375 60.40625 
L 10.984375 69.390625 
L 28.421875 72.90625 
L 38.28125 72.90625 
L 38.28125 8.296875 
L 54.390625 8.296875 
L 54.390625 0 
L 12.40625 0 
z
" id="DejaVuSans-49"/>
       <path d="M 33.015625 40.375 
Q 26.375 40.375 22.484375 35.828125 
Q 18.609375 31.296875 18.609375 23.390625 
Q 18.609375 15.53125 22.484375 10.953125 
Q 26.375 6.390625 33.015625 6.390625 
Q 39.65625 6.390625 43.53125 10.953125 
Q 47.40625 15.53125 47.40625 23.390625 
Q 47.40625 31.296875 43.53125 35.828125 
Q 39.65625 40.375 33.015625 40.375 
z
M 52.59375 71.296875 
L 52.59375 62.3125 
Q 48.875 64.0625 45.09375 64.984375 
Q 41.3125 65.921875 37.59375 65.921875 
Q 27.828125 65.921875 22.671875 59.328125 
Q 17.53125 52.734375 16.796875 39.40625 
Q 19.671875 43.65625 24.015625 45.921875 
Q 28.375 48.1875 33.59375 48.1875 
Q 44.578125 48.1875 50.953125 41.515625 
Q 57.328125 34.859375 57.328125 23.390625 
Q 57.328125 12.15625 50.6875 5.359375 
Q 44.046875 -1.421875 33.015625 -1.421875 
Q 20.359375 -1.421875 13.671875 8.265625 
Q 6.984375 17.96875 6.984375 36.375 
Q 6.984375 53.65625 15.1875 63.9375 
Q 23.390625 74.21875 37.203125 74.21875 
Q 40.921875 74.21875 44.703125 73.484375 
Q 48.484375 72.75 52.59375 71.296875 
z
" id="DejaVuSans-54"/>
      </defs>
      <g transform="translate(56.493182 266.598437)scale(0.1 -0.1)">
       <use xlink:href="#DejaVuSans-50"/>
       <use x="63.623047" xlink:href="#DejaVuSans-48"/>
       <use x="127.246094" xlink:href="#DejaVuSans-49"/>
       <use x="190.869141" xlink:href="#DejaVuSans-54"/>
      </g>
     </g>
    </g>
    <g id="xtick_2">
     <g id="line2d_2">
      <g>
       <use style="stroke:#000000;stroke-width:0.8;" x="130.224256" xlink:href="#m26974cdd7e" y="252"/>
      </g>
     </g>
     <g id="text_2">
      <!-- 2017 -->
      <defs>
       <path d="M 8.203125 72.90625 
L 55.078125 72.90625 
L 55.078125 68.703125 
L 28.609375 0 
L 18.3125 0 
L 43.21875 64.59375 
L 8.203125 64.59375 
z
" id="DejaVuSans-55"/>
      </defs>
      <g transform="translate(117.499256 266.598437)scale(0.1 -0.1)">
       <use xlink:href="#DejaVuSans-50"/>
       <use x="63.623047" xlink:href="#DejaVuSans-48"/>
       <use x="127.246094" xlink:href="#DejaVuSans-49"/>
       <use x="190.869141" xlink:href="#DejaVuSans-55"/>
      </g>
     </g>
    </g>
    <g id="xtick_3">
     <g id="line2d_3">
      <g>
       <use style="stroke:#000000;stroke-width:0.8;" x="191.063646" xlink:href="#m26974cdd7e" y="252"/>
      </g>
     </g>
     <g id="text_3">
      <!-- 2018 -->
      <defs>
       <path d="M 31.78125 34.625 
Q 24.75 34.625 20.71875 30.859375 
Q 16.703125 27.09375 16.703125 20.515625 
Q 16.703125 13.921875 20.71875 10.15625 
Q 24.75 6.390625 31.78125 6.390625 
Q 38.8125 6.390625 42.859375 10.171875 
Q 46.921875 13.96875 46.921875 20.515625 
Q 46.921875 27.09375 42.890625 30.859375 
Q 38.875 34.625 31.78125 34.625 
z
M 21.921875 38.8125 
Q 15.578125 40.375 12.03125 44.71875 
Q 8.5 49.078125 8.5 55.328125 
Q 8.5 64.0625 14.71875 69.140625 
Q 20.953125 74.21875 31.78125 74.21875 
Q 42.671875 74.21875 48.875 69.140625 
Q 55.078125 64.0625 55.078125 55.328125 
Q 55.078125 49.078125 51.53125 44.71875 
Q 48 40.375 41.703125 38.8125 
Q 48.828125 37.15625 52.796875 32.3125 
Q 56.78125 27.484375 56.78125 20.515625 
Q 56.78125 9.90625 50.3125 4.234375 
Q 43.84375 -1.421875 31.78125 -1.421875 
Q 19.734375 -1.421875 13.25 4.234375 
Q 6.78125 9.90625 6.78125 20.515625 
Q 6.78125 27.484375 10.78125 32.3125 
Q 14.796875 37.15625 21.921875 38.8125 
z
M 18.3125 54.390625 
Q 18.3125 48.734375 21.84375 45.5625 
Q 25.390625 42.390625 31.78125 42.390625 
Q 38.140625 42.390625 41.71875 45.5625 
Q 45.3125 48.734375 45.3125 54.390625 
Q 45.3125 60.0625 41.71875 63.234375 
Q 38.140625 66.40625 31.78125 66.40625 
Q 25.390625 66.40625 21.84375 63.234375 
Q 18.3125 60.0625 18.3125 54.390625 
z
" id="DejaVuSans-56"/>
      </defs>
      <g transform="translate(178.338646 266.598437)scale(0.1 -0.1)">
       <use xlink:href="#DejaVuSans-50"/>
       <use x="63.623047" xlink:href="#DejaVuSans-48"/>
       <use x="127.246094" xlink:href="#DejaVuSans-49"/>
       <use x="190.869141" xlink:href="#DejaVuSans-56"/>
      </g>
     </g>
    </g>
    <g id="xtick_4">
     <g id="line2d_4">
      <g>
       <use style="stroke:#000000;stroke-width:0.8;" x="251.903037" xlink:href="#m26974cdd7e" y="252"/>
      </g>
     </g>
     <g id="text_4">
      <!-- 2019 -->
      <defs>
       <path d="M 10.984375 1.515625 
L 10.984375 10.5 
Q 14.703125 8.734375 18.5 7.8125 
Q 22.3125 6.890625 25.984375 6.890625 
Q 35.75 6.890625 40.890625 13.453125 
Q 46.046875 20.015625 46.78125 33.40625 
Q 43.953125 29.203125 39.59375 26.953125 
Q 35.25 24.703125 29.984375 24.703125 
Q 19.046875 24.703125 12.671875 31.3125 
Q 6.296875 37.9375 6.296875 49.421875 
Q 6.296875 60.640625 12.9375 67.421875 
Q 19.578125 74.21875 30.609375 74.21875 
Q 43.265625 74.21875 49.921875 64.515625 
Q 56.59375 54.828125 56.59375 36.375 
Q 56.59375 19.140625 48.40625 8.859375 
Q 40.234375 -1.421875 26.421875 -1.421875 
Q 22.703125 -1.421875 18.890625 -0.6875 
Q 15.09375 0.046875 10.984375 1.515625 
z
M 30.609375 32.421875 
Q 37.25 32.421875 41.125 36.953125 
Q 45.015625 41.5 45.015625 49.421875 
Q 45.015625 57.28125 41.125 61.84375 
Q 37.25 66.40625 30.609375 66.40625 
Q 23.96875 66.40625 20.09375 61.84375 
Q 16.21875 57.28125 16.21875 49.421875 
Q 16.21875 41.5 20.09375 36.953125 
Q 23.96875 32.421875 30.609375 32.421875 
z
" id="DejaVuSans-57"/>
      </defs>
      <g transform="translate(239.178037 266.598437)scale(0.1 -0.1)">
       <use xlink:href="#DejaVuSans-50"/>
       <use x="63.623047" xlink:href="#DejaVuSans-48"/>
       <use x="127.246094" xlink:href="#DejaVuSans-49"/>
       <use x="190.869141" xlink:href="#DejaVuSans-57"/>
      </g>
     </g>
    </g>
    <g id="xtick_5">
     <g id="line2d_5">
      <g>
       <use style="stroke:#000000;stroke-width:0.8;" x="312.742428" xlink:href="#m26974cdd7e" y="252"/>
      </g>
     </g>
     <g id="text_5">
      <!-- 2020 -->
      <g transform="translate(300.017428 266.598437)scale(0.1 -0.1)">
       <use xlink:href="#DejaVuSans-50"/>
       <use x="63.623047" xlink:href="#DejaVuSans-48"/>
       <use x="127.246094" xlink:href="#DejaVuSans-50"/>
       <use x="190.869141" xlink:href="#DejaVuSans-48"/>
      </g>
     </g>
    </g>
    <g id="xtick_6">
     <g id="line2d_6">
      <g>
       <use style="stroke:#000000;stroke-width:0.8;" x="373.748501" xlink:href="#m26974cdd7e" y="252"/>
      </g>
     </g>
     <g id="text_6">
      <!-- 2021 -->
      <g transform="translate(361.023501 266.598437)scale(0.1 -0.1)">
       <use xlink:href="#DejaVuSans-50"/>
       <use x="63.623047" xlink:href="#DejaVuSans-48"/>
       <use x="127.246094" xlink:href="#DejaVuSans-50"/>
       <use x="190.869141" xlink:href="#DejaVuSans-49"/>
      </g>
     </g>
    </g>
    <g id="text_7">
     <!-- Date -->
     <defs>
      <path d="M 19.671875 64.796875 
L 19.671875 8.109375 
L 31.59375 8.109375 
Q 46.6875 8.109375 53.6875 14.9375 
Q 60.6875 21.78125 60.6875 36.53125 
Q 60.6875 51.171875 53.6875 57.984375 
Q 46.6875 64.796875 31.59375 64.796875 
z
M 9.8125 72.90625 
L 30.078125 72.90625 
Q 51.265625 72.90625 61.171875 64.09375 
Q 71.09375 55.28125 71.09375 36.53125 
Q 71.09375 17.671875 61.125 8.828125 
Q 51.171875 0 30.078125 0 
L 9.8125 0 
z
" id="DejaVuSans-68"/>
      <path d="M 34.28125 27.484375 
Q 23.390625 27.484375 19.1875 25 
Q 14.984375 22.515625 14.984375 16.5 
Q 14.984375 11.71875 18.140625 8.90625 
Q 21.296875 6.109375 26.703125 6.109375 
Q 34.1875 6.109375 38.703125 11.40625 
Q 43.21875 16.703125 43.21875 25.484375 
L 43.21875 27.484375 
z
M 52.203125 31.203125 
L 52.203125 0 
L 43.21875 0 
L 43.21875 8.296875 
Q 40.140625 3.328125 35.546875 0.953125 
Q 30.953125 -1.421875 24.3125 -1.421875 
Q 15.921875 -1.421875 10.953125 3.296875 
Q 6 8.015625 6 15.921875 
Q 6 25.140625 12.171875 29.828125 
Q 18.359375 34.515625 30.609375 34.515625 
L 43.21875 34.515625 
L 43.21875 35.40625 
Q 43.21875 41.609375 39.140625 45 
Q 35.0625 48.390625 27.6875 48.390625 
Q 23 48.390625 18.546875 47.265625 
Q 14.109375 46.140625 10.015625 43.890625 
L 10.015625 52.203125 
Q 14.9375 54.109375 19.578125 55.046875 
Q 24.21875 56 28.609375 56 
Q 40.484375 56 46.34375 49.84375 
Q 52.203125 43.703125 52.203125 31.203125 
z
" id="DejaVuSans-97"/>
      <path d="M 18.3125 70.21875 
L 18.3125 54.6875 
L 36.8125 54.6875 
L 36.8125 47.703125 
L 18.3125 47.703125 
L 18.3125 18.015625 
Q 18.3125 11.328125 20.140625 9.421875 
Q 21.96875 7.515625 27.59375 7.515625 
L 36.8125 7.515625 
L 36.8125 0 
L 27.59375 0 
Q 17.1875 0 13.234375 3.875 
Q 9.28125 7.765625 9.28125 18.015625 
L 9.28125 47.703125 
L 2.6875 47.703125 
L 2.6875 54.6875 
L 9.28125 54.6875 
L 9.28125 70.21875 
z
" id="DejaVuSans-116"/>
      <path d="M 56.203125 29.59375 
L 56.203125 25.203125 
L 14.890625 25.203125 
Q 15.484375 15.921875 20.484375 11.0625 
Q 25.484375 6.203125 34.421875 6.203125 
Q 39.59375 6.203125 44.453125 7.46875 
Q 49.3125 8.734375 54.109375 11.28125 
L 54.109375 2.78125 
Q 49.265625 0.734375 44.1875 -0.34375 
Q 39.109375 -1.421875 33.890625 -1.421875 
Q 20.796875 -1.421875 13.15625 6.1875 
Q 5.515625 13.8125 5.515625 26.8125 
Q 5.515625 40.234375 12.765625 48.109375 
Q 20.015625 56 32.328125 56 
Q 43.359375 56 49.78125 48.890625 
Q 56.203125 41.796875 56.203125 29.59375 
z
M 47.21875 32.234375 
Q 47.125 39.59375 43.09375 43.984375 
Q 39.0625 48.390625 32.421875 48.390625 
Q 24.90625 48.390625 20.390625 44.140625 
Q 15.875 39.890625 15.1875 32.171875 
z
" id="DejaVuSans-101"/>
     </defs>
     <g transform="translate(209.449219 280.276563)scale(0.1 -0.1)">
      <use xlink:href="#DejaVuSans-68"/>
      <use x="77.001953" xlink:href="#DejaVuSans-97"/>
      <use x="138.28125" xlink:href="#DejaVuSans-116"/>
      <use x="177.490234" xlink:href="#DejaVuSans-101"/>
     </g>
    </g>
   </g>
   <g id="matplotlib.axis_2">
    <g id="ytick_1">
     <g id="line2d_7">
      <defs>
       <path d="M 0 0 
L -3.5 0 
" id="m444fd53369" style="stroke:#000000;stroke-width:0.8;"/>
      </defs>
      <g>
       <use style="stroke:#000000;stroke-width:0.8;" x="54" xlink:href="#m444fd53369" y="242.116364"/>
      </g>
     </g>
     <g id="text_8">
      <!-- 0 -->
      <g transform="translate(40.6375 245.915582)scale(0.1 -0.1)">
       <use xlink:href="#DejaVuSans-48"/>
      </g>
     </g>
    </g>
    <g id="ytick_2">
     <g id="line2d_8">
      <g>
       <use style="stroke:#000000;stroke-width:0.8;" x="54" xlink:href="#m444fd53369" y="204.102378"/>
      </g>
     </g>
     <g id="text_9">
      <!-- 500 -->
      <defs>
       <path d="M 10.796875 72.90625 
L 49.515625 72.90625 
L 49.515625 64.59375 
L 19.828125 64.59375 
L 19.828125 46.734375 
Q 21.96875 47.46875 24.109375 47.828125 
Q 26.265625 48.1875 28.421875 48.1875 
Q 40.625 48.1875 47.75 41.5 
Q 54.890625 34.8125 54.890625 23.390625 
Q 54.890625 11.625 47.5625 5.09375 
Q 40.234375 -1.421875 26.90625 -1.421875 
Q 22.3125 -1.421875 17.546875 -0.640625 
Q 12.796875 0.140625 7.71875 1.703125 
L 7.71875 11.625 
Q 12.109375 9.234375 16.796875 8.0625 
Q 21.484375 6.890625 26.703125 6.890625 
Q 35.15625 6.890625 40.078125 11.328125 
Q 45.015625 15.765625 45.015625 23.390625 
Q 45.015625 31 40.078125 35.4375 
Q 35.15625 39.890625 26.703125 39.890625 
Q 22.75 39.890625 18.8125 39.015625 
Q 14.890625 38.140625 10.796875 36.28125 
z
" id="DejaVuSans-53"/>
      </defs>
      <g transform="translate(27.9125 207.901596)scale(0.1 -0.1)">
       <use xlink:href="#DejaVuSans-53"/>
       <use x="63.623047" xlink:href="#DejaVuSans-48"/>
       <use x="127.246094" xlink:href="#DejaVuSans-48"/>
      </g>
     </g>
    </g>
    <g id="ytick_3">
     <g id="line2d_9">
      <g>
       <use style="stroke:#000000;stroke-width:0.8;" x="54" xlink:href="#m444fd53369" y="166.088392"/>
      </g>
     </g>
     <g id="text_10">
      <!-- 1000 -->
      <g transform="translate(21.55 169.88761)scale(0.1 -0.1)">
       <use xlink:href="#DejaVuSans-49"/>
       <use x="63.623047" xlink:href="#DejaVuSans-48"/>
       <use x="127.246094" xlink:href="#DejaVuSans-48"/>
       <use x="190.869141" xlink:href="#DejaVuSans-48"/>
      </g>
     </g>
    </g>
    <g id="ytick_4">
     <g id="line2d_10">
      <g>
       <use style="stroke:#000000;stroke-width:0.8;" x="54" xlink:href="#m444fd53369" y="128.074406"/>
      </g>
     </g>
     <g id="text_11">
      <!-- 1500 -->
      <g transform="translate(21.55 131.873624)scale(0.1 -0.1)">
       <use xlink:href="#DejaVuSans-49"/>
       <use x="63.623047" xlink:href="#DejaVuSans-53"/>
       <use x="127.246094" xlink:href="#DejaVuSans-48"/>
       <use x="190.869141" xlink:href="#DejaVuSans-48"/>
      </g>
     </g>
    </g>
    <g id="ytick_5">
     <g id="line2d_11">
      <g>
       <use style="stroke:#000000;stroke-width:0.8;" x="54" xlink:href="#m444fd53369" y="90.06042"/>
      </g>
     </g>
     <g id="text_12">
      <!-- 2000 -->
      <g transform="translate(21.55 93.859638)scale(0.1 -0.1)">
       <use xlink:href="#DejaVuSans-50"/>
       <use x="63.623047" xlink:href="#DejaVuSans-48"/>
       <use x="127.246094" xlink:href="#DejaVuSans-48"/>
       <use x="190.869141" xlink:href="#DejaVuSans-48"/>
      </g>
     </g>
    </g>
    <g id="ytick_6">
     <g id="line2d_12">
      <g>
       <use style="stroke:#000000;stroke-width:0.8;" x="54" xlink:href="#m444fd53369" y="52.046434"/>
      </g>
     </g>
     <g id="text_13">
      <!-- 2500 -->
      <g transform="translate(21.55 55.845652)scale(0.1 -0.1)">
       <use xlink:href="#DejaVuSans-50"/>
       <use x="63.623047" xlink:href="#DejaVuSans-53"/>
       <use x="127.246094" xlink:href="#DejaVuSans-48"/>
       <use x="190.869141" xlink:href="#DejaVuSans-48"/>
      </g>
     </g>
    </g>
    <g id="text_14">
     <!-- Sales (USD) -->
     <defs>
      <path d="M 53.515625 70.515625 
L 53.515625 60.890625 
Q 47.90625 63.578125 42.921875 64.890625 
Q 37.9375 66.21875 33.296875 66.21875 
Q 25.25 66.21875 20.875 63.09375 
Q 16.5 59.96875 16.5 54.203125 
Q 16.5 49.359375 19.40625 46.890625 
Q 22.3125 44.4375 30.421875 42.921875 
L 36.375 41.703125 
Q 47.40625 39.59375 52.65625 34.296875 
Q 57.90625 29 57.90625 20.125 
Q 57.90625 9.515625 50.796875 4.046875 
Q 43.703125 -1.421875 29.984375 -1.421875 
Q 24.8125 -1.421875 18.96875 -0.25 
Q 13.140625 0.921875 6.890625 3.21875 
L 6.890625 13.375 
Q 12.890625 10.015625 18.65625 8.296875 
Q 24.421875 6.59375 29.984375 6.59375 
Q 38.421875 6.59375 43.015625 9.90625 
Q 47.609375 13.234375 47.609375 19.390625 
Q 47.609375 24.75 44.3125 27.78125 
Q 41.015625 30.8125 33.5 32.328125 
L 27.484375 33.5 
Q 16.453125 35.6875 11.515625 40.375 
Q 6.59375 45.0625 6.59375 53.421875 
Q 6.59375 63.09375 13.40625 68.65625 
Q 20.21875 74.21875 32.171875 74.21875 
Q 37.3125 74.21875 42.625 73.28125 
Q 47.953125 72.359375 53.515625 70.515625 
z
" id="DejaVuSans-83"/>
      <path d="M 9.421875 75.984375 
L 18.40625 75.984375 
L 18.40625 0 
L 9.421875 0 
z
" id="DejaVuSans-108"/>
      <path d="M 44.28125 53.078125 
L 44.28125 44.578125 
Q 40.484375 46.53125 36.375 47.5 
Q 32.28125 48.484375 27.875 48.484375 
Q 21.1875 48.484375 17.84375 46.4375 
Q 14.5 44.390625 14.5 40.28125 
Q 14.5 37.15625 16.890625 35.375 
Q 19.28125 33.59375 26.515625 31.984375 
L 29.59375 31.296875 
Q 39.15625 29.25 43.1875 25.515625 
Q 47.21875 21.78125 47.21875 15.09375 
Q 47.21875 7.46875 41.1875 3.015625 
Q 35.15625 -1.421875 24.609375 -1.421875 
Q 20.21875 -1.421875 15.453125 -0.5625 
Q 10.6875 0.296875 5.421875 2 
L 5.421875 11.28125 
Q 10.40625 8.6875 15.234375 7.390625 
Q 20.0625 6.109375 24.8125 6.109375 
Q 31.15625 6.109375 34.5625 8.28125 
Q 37.984375 10.453125 37.984375 14.40625 
Q 37.984375 18.0625 35.515625 20.015625 
Q 33.0625 21.96875 24.703125 23.78125 
L 21.578125 24.515625 
Q 13.234375 26.265625 9.515625 29.90625 
Q 5.8125 33.546875 5.8125 39.890625 
Q 5.8125 47.609375 11.28125 51.796875 
Q 16.75 56 26.8125 56 
Q 31.78125 56 36.171875 55.265625 
Q 40.578125 54.546875 44.28125 53.078125 
z
" id="DejaVuSans-115"/>
      <path id="DejaVuSans-32"/>
      <path d="M 31 75.875 
Q 24.46875 64.65625 21.28125 53.65625 
Q 18.109375 42.671875 18.109375 31.390625 
Q 18.109375 20.125 21.3125 9.0625 
Q 24.515625 -2 31 -13.1875 
L 23.1875 -13.1875 
Q 15.875 -1.703125 12.234375 9.375 
Q 8.59375 20.453125 8.59375 31.390625 
Q 8.59375 42.28125 12.203125 53.3125 
Q 15.828125 64.359375 23.1875 75.875 
z
" id="DejaVuSans-40"/>
      <path d="M 8.6875 72.90625 
L 18.609375 72.90625 
L 18.609375 28.609375 
Q 18.609375 16.890625 22.84375 11.734375 
Q 27.09375 6.59375 36.625 6.59375 
Q 46.09375 6.59375 50.34375 11.734375 
Q 54.59375 16.890625 54.59375 28.609375 
L 54.59375 72.90625 
L 64.5 72.90625 
L 64.5 27.390625 
Q 64.5 13.140625 57.4375 5.859375 
Q 50.390625 -1.421875 36.625 -1.421875 
Q 22.796875 -1.421875 15.734375 5.859375 
Q 8.6875 13.140625 8.6875 27.390625 
z
" id="DejaVuSans-85"/>
      <path d="M 8.015625 75.875 
L 15.828125 75.875 
Q 23.140625 64.359375 26.78125 53.3125 
Q 30.421875 42.28125 30.421875 31.390625 
Q 30.421875 20.453125 26.78125 9.375 
Q 23.140625 -1.703125 15.828125 -13.1875 
L 8.015625 -13.1875 
Q 14.5 -2 17.703125 9.0625 
Q 20.90625 20.125 20.90625 31.390625 
Q 20.90625 42.671875 17.703125 53.65625 
Q 14.5 64.65625 8.015625 75.875 
z
" id="DejaVuSans-41"/>
     </defs>
     <g transform="translate(15.470312 172.762812)rotate(-90)scale(0.1 -0.1)">
      <use xlink:href="#DejaVuSans-83"/>
      <use x="63.476562" xlink:href="#DejaVuSans-97"/>
      <use x="124.755859" xlink:href="#DejaVuSans-108"/>
      <use x="152.539062" xlink:href="#DejaVuSans-101"/>
      <use x="214.0625" xlink:href="#DejaVuSans-115"/>
      <use x="266.162109" xlink:href="#DejaVuSans-32"/>
      <use x="297.949219" xlink:href="#DejaVuSans-40"/>
      <use x="336.962891" xlink:href="#DejaVuSans-85"/>
      <use x="410.15625" xlink:href="#DejaVuSans-83"/>
      <use x="473.632812" xlink:href="#DejaVuSans-68"/>
      <use x="550.634766" xlink:href="#DejaVuSans-41"/>
     </g>
    </g>
   </g>
   <g id="line2d_13">
    <path clip-path="url(#pa30b328348)" d="M 69.218182 90.06042 
L 69.384865 112.868811 
L 69.551548 105.266014 
L 69.718232 135.677203 
L 69.884915 128.074406 
L 70.218281 128.074406 
L 70.384965 112.868811 
L 70.551648 82.457622 
L 70.718331 90.06042 
L 71.051698 143.28 
L 71.218381 120.471608 
L 71.551747 52.046434 
L 71.718431 90.06042 
L 71.885114 90.06042 
L 72.051797 59.649231 
L 72.218481 112.868811 
L 72.385164 128.074406 
L 72.551847 105.266014 
L 72.71853 150.882797 
L 73.051897 120.471608 
L 73.21858 120.471608 
L 73.551947 97.663217 
L 73.885313 128.074406 
L 74.385363 128.074406 
L 74.718729 82.457622 
L 75.385463 135.677203 
L 75.552146 112.868811 
L 75.718829 52.046434 
L 75.885512 128.074406 
L 76.052196 143.28 
L 76.218879 143.28 
L 76.552245 74.854825 
L 76.718929 74.854825 
L 76.885612 82.457622 
L 77.218978 120.471608 
L 77.385662 120.471608 
L 77.552345 128.074406 
L 77.719028 120.471608 
L 77.885711 120.471608 
L 78.052395 135.677203 
L 78.219078 135.677203 
L 78.385761 105.266014 
L 78.552444 120.471608 
L 78.719128 112.868811 
L 78.885811 82.457622 
L 79.219178 112.868811 
L 79.385861 105.266014 
L 79.719227 120.471608 
L 79.885911 143.28 
L 80.052594 135.677203 
L 80.219277 158.485594 
L 80.38596 120.471608 
L 80.552644 120.471608 
L 80.719327 158.485594 
L 80.88601 150.882797 
L 81.052693 135.677203 
L 81.219377 158.485594 
L 81.38606 158.485594 
L 81.552743 166.088392 
L 81.719426 158.485594 
L 81.88611 135.677203 
L 82.052793 158.485594 
L 82.219476 120.471608 
L 82.38616 120.471608 
L 82.552843 181.293986 
L 82.886209 181.293986 
L 83.052893 143.28 
L 83.219576 166.088392 
L 83.386259 143.28 
L 83.552942 158.485594 
L 83.719626 128.074406 
L 83.886309 128.074406 
L 84.052992 135.677203 
L 84.386359 120.471608 
L 84.553042 120.471608 
L 84.719725 112.868811 
L 84.886408 112.868811 
L 85.053092 105.266014 
L 85.219775 120.471608 
L 85.386458 166.088392 
L 85.553141 135.677203 
L 85.719825 128.074406 
L 85.886508 143.28 
L 86.053191 188.896783 
L 86.386558 143.28 
L 86.719924 143.28 
L 86.886608 150.882797 
L 87.053291 150.882797 
L 87.219974 143.28 
L 87.386657 143.28 
L 87.553341 166.088392 
L 87.720024 173.691189 
L 87.886707 166.088392 
L 88.05339 173.691189 
L 88.220074 158.485594 
L 88.386757 181.293986 
L 88.55344 188.896783 
L 88.720123 173.691189 
L 89.05349 173.691189 
L 89.220173 188.896783 
L 89.386857 181.293986 
L 89.720223 135.677203 
L 89.886906 181.293986 
L 90.220273 143.28 
L 90.386956 150.882797 
L 90.553639 166.088392 
L 90.720323 166.088392 
L 90.887006 181.293986 
L 91.053689 166.088392 
L 91.220372 166.088392 
L 91.387056 204.102378 
L 91.553739 196.49958 
L 91.887105 158.485594 
L 92.053789 173.691189 
L 92.387155 219.307972 
L 92.553838 226.910769 
L 92.720522 219.307972 
L 92.887205 204.102378 
L 93.220572 158.485594 
L 93.387255 150.882797 
L 93.553938 150.882797 
L 93.720621 158.485594 
L 94.220671 158.485594 
L 94.387354 150.882797 
L 94.887404 173.691189 
L 95.054087 158.485594 
L 95.220771 204.102378 
L 95.387454 188.896783 
L 95.554137 226.910769 
L 95.887504 211.705175 
L 96.054187 158.485594 
L 96.22087 204.102378 
L 96.72092 158.485594 
L 97.054287 196.49958 
L 97.22097 226.910769 
L 97.554336 196.49958 
L 97.72102 219.307972 
L 97.887703 211.705175 
L 98.054386 188.896783 
L 98.221069 211.705175 
L 98.721119 188.896783 
L 99.054486 166.088392 
L 99.221169 173.691189 
L 99.387852 173.691189 
L 99.554535 166.088392 
L 99.721219 166.088392 
L 99.887902 196.49958 
L 100.054585 188.896783 
L 100.221269 188.896783 
L 100.387952 181.293986 
L 100.554635 196.49958 
L 100.721318 181.293986 
L 100.888002 181.293986 
L 101.054685 211.705175 
L 101.221368 196.49958 
L 101.388051 204.102378 
L 101.721418 188.896783 
L 101.888101 188.896783 
L 102.054784 196.49958 
L 102.221468 181.293986 
L 102.388151 204.102378 
L 102.888201 150.882797 
L 103.054884 173.691189 
L 103.221567 181.293986 
L 103.388251 173.691189 
L 103.721617 173.691189 
L 103.8883 188.896783 
L 104.054984 181.293986 
L 104.555033 219.307972 
L 105.221766 166.088392 
L 105.38845 196.49958 
L 105.888499 196.49958 
L 106.055183 188.896783 
L 106.388549 219.307972 
L 106.888599 173.691189 
L 107.055282 181.293986 
L 107.221966 166.088392 
L 107.388649 166.088392 
L 107.555332 188.896783 
L 107.888699 150.882797 
L 108.055382 188.896783 
L 108.222065 188.896783 
L 108.388748 219.307972 
L 108.555432 196.49958 
L 108.722115 211.705175 
L 108.888798 188.896783 
L 109.222165 204.102378 
L 109.388848 181.293986 
L 109.555531 204.102378 
L 109.722214 196.49958 
L 110.055581 166.088392 
L 110.222264 173.691189 
L 110.388948 173.691189 
L 110.722314 188.896783 
L 111.055681 135.677203 
L 111.389047 188.896783 
L 111.55573 150.882797 
L 111.722414 166.088392 
L 111.889097 158.485594 
L 112.05578 188.896783 
L 112.389147 135.677203 
L 112.55583 166.088392 
L 112.722513 120.471608 
L 113.05588 196.49958 
L 113.222563 158.485594 
L 113.389246 196.49958 
L 113.55593 166.088392 
L 113.722613 188.896783 
L 113.889296 188.896783 
L 114.055979 166.088392 
L 114.222663 188.896783 
L 114.722712 150.882797 
L 114.889396 181.293986 
L 115.056079 143.28 
L 115.389445 196.49958 
L 115.722812 143.28 
L 115.889495 135.677203 
L 116.056178 188.896783 
L 116.222862 150.882797 
L 116.389545 188.896783 
L 116.722911 204.102378 
L 117.056278 143.28 
L 117.222961 181.293986 
L 117.389645 166.088392 
L 117.723011 188.896783 
L 117.889694 166.088392 
L 118.056378 158.485594 
L 118.223061 143.28 
L 118.723111 196.49958 
L 119.22316 143.28 
L 119.556527 158.485594 
L 119.889893 158.485594 
L 120.056577 173.691189 
L 120.389943 143.28 
L 120.556627 143.28 
L 120.72331 166.088392 
L 120.889993 158.485594 
L 121.056676 188.896783 
L 121.22336 173.691189 
L 121.390043 135.677203 
L 121.556726 128.074406 
L 121.723409 166.088392 
L 121.890093 166.088392 
L 122.056776 173.691189 
L 122.223459 173.691189 
L 122.390142 158.485594 
L 122.556826 181.293986 
L 122.723509 173.691189 
L 122.890192 158.485594 
L 123.056875 158.485594 
L 123.223559 143.28 
L 123.390242 150.882797 
L 123.556925 166.088392 
L 123.723608 128.074406 
L 124.223658 173.691189 
L 124.390342 150.882797 
L 124.557025 112.868811 
L 124.890391 143.28 
L 125.057075 143.28 
L 125.223758 166.088392 
L 125.390441 135.677203 
L 125.557124 158.485594 
L 125.890491 128.074406 
L 126.057174 135.677203 
L 126.223857 150.882797 
L 126.390541 150.882797 
L 126.723907 135.677203 
L 126.89059 112.868811 
L 127.057274 173.691189 
L 127.223957 150.882797 
L 127.39064 150.882797 
L 127.557324 158.485594 
L 127.724007 120.471608 
L 127.89069 128.074406 
L 128.224057 158.485594 
L 128.39074 158.485594 
L 128.557423 128.074406 
L 128.724106 150.882797 
L 128.89079 128.074406 
L 129.057473 135.677203 
L 129.224156 135.677203 
L 129.390839 128.074406 
L 129.557523 143.28 
L 129.724206 128.074406 
L 129.890889 128.074406 
L 130.057572 112.868811 
L 130.224256 112.868811 
L 130.557622 143.28 
L 130.724305 128.074406 
L 131.057672 150.882797 
L 131.224355 135.677203 
L 131.391039 135.677203 
L 131.557722 120.471608 
L 131.724405 128.074406 
L 132.057772 74.854825 
L 132.224455 128.074406 
L 132.391138 143.28 
L 132.724505 128.074406 
L 132.891188 59.649231 
L 133.057871 105.266014 
L 133.224554 97.663217 
L 133.391238 52.046434 
L 133.557921 90.06042 
L 133.724604 97.663217 
L 133.891287 128.074406 
L 134.224654 105.266014 
L 134.391337 143.28 
L 134.558021 135.677203 
L 134.724704 150.882797 
L 134.891387 112.868811 
L 135.05807 112.868811 
L 135.224754 135.677203 
L 135.391437 135.677203 
L 135.55812 143.28 
L 135.891487 128.074406 
L 136.05817 143.28 
L 136.224853 143.28 
L 136.55822 74.854825 
L 136.891586 143.28 
L 137.558319 74.854825 
L 137.725002 44.443636 
L 137.891686 105.266014 
L 138.058369 112.868811 
L 138.391736 150.882797 
L 138.558419 128.074406 
L 138.725102 128.074406 
L 138.891785 143.28 
L 139.058469 128.074406 
L 139.225152 135.677203 
L 139.391835 150.882797 
L 139.558518 135.677203 
L 139.725202 166.088392 
L 139.891885 143.28 
L 140.058568 158.485594 
L 140.225251 143.28 
L 140.391935 173.691189 
L 140.725301 82.457622 
L 141.058668 120.471608 
L 141.225351 97.663217 
L 141.392034 158.485594 
L 141.558718 173.691189 
L 141.725401 166.088392 
L 141.892084 135.677203 
L 142.058767 150.882797 
L 142.392134 97.663217 
L 142.558817 74.854825 
L 142.7255 128.074406 
L 142.892184 135.677203 
L 143.058867 173.691189 
L 143.392233 112.868811 
L 143.558917 90.06042 
L 143.892283 143.28 
L 144.058966 135.677203 
L 144.392333 112.868811 
L 144.559016 143.28 
L 144.725699 135.677203 
L 144.892383 135.677203 
L 145.059066 166.088392 
L 145.225749 166.088392 
L 145.392433 150.882797 
L 145.559116 158.485594 
L 145.725799 158.485594 
L 145.892482 181.293986 
L 146.059166 150.882797 
L 146.392532 150.882797 
L 146.559215 166.088392 
L 146.725899 128.074406 
L 147.059265 150.882797 
L 147.225948 143.28 
L 147.559315 97.663217 
L 147.892681 173.691189 
L 148.059365 166.088392 
L 148.226048 188.896783 
L 148.392731 181.293986 
L 148.559415 188.896783 
L 148.726098 173.691189 
L 149.059464 120.471608 
L 149.559514 196.49958 
L 149.892881 166.088392 
L 150.059564 166.088392 
L 150.226247 188.896783 
L 150.39293 196.49958 
L 150.726297 143.28 
L 150.89298 158.485594 
L 151.059663 158.485594 
L 151.226347 166.088392 
L 151.559713 204.102378 
L 152.059763 166.088392 
L 152.226446 158.485594 
L 152.39313 173.691189 
L 152.559813 219.307972 
L 152.726496 211.705175 
L 152.893179 196.49958 
L 153.059863 143.28 
L 153.226546 128.074406 
L 153.393229 188.896783 
L 153.559912 181.293986 
L 153.726596 196.49958 
L 153.893279 181.293986 
L 154.059962 181.293986 
L 154.226645 158.485594 
L 154.393329 150.882797 
L 154.560012 150.882797 
L 154.726695 135.677203 
L 155.393428 188.896783 
L 155.560112 173.691189 
L 155.726795 219.307972 
L 155.893478 226.910769 
L 156.060161 242.116364 
L 156.393528 226.910769 
L 156.560211 204.102378 
L 156.726894 226.910769 
L 156.893578 211.705175 
L 157.060261 181.293986 
L 157.226944 196.49958 
L 157.393627 188.896783 
L 157.560311 196.49958 
L 157.726994 188.896783 
L 157.893677 188.896783 
L 158.06036 181.293986 
L 158.227044 181.293986 
L 158.393727 196.49958 
L 158.56041 188.896783 
L 158.727093 196.49958 
L 158.893777 196.49958 
L 159.06046 181.293986 
L 159.393827 234.513566 
L 159.56051 242.116364 
L 159.893876 188.896783 
L 160.06056 188.896783 
L 160.227243 173.691189 
L 160.560609 234.513566 
L 160.893976 219.307972 
L 161.060659 219.307972 
L 161.227342 188.896783 
L 161.394026 188.896783 
L 161.894075 226.910769 
L 162.394125 188.896783 
L 162.727492 219.307972 
L 162.894175 204.102378 
L 163.060858 219.307972 
L 163.227542 219.307972 
L 163.394225 204.102378 
L 163.560908 242.116364 
L 163.894275 242.116364 
L 164.394324 173.691189 
L 164.561008 173.691189 
L 164.727691 219.307972 
L 165.061057 204.102378 
L 165.227741 204.102378 
L 165.561107 173.691189 
L 165.727791 181.293986 
L 165.894474 173.691189 
L 166.061157 226.910769 
L 166.22784 226.910769 
L 166.394524 211.705175 
L 166.561207 219.307972 
L 166.72789 219.307972 
L 166.894573 196.49958 
L 167.061257 158.485594 
L 167.22794 166.088392 
L 167.394623 188.896783 
L 167.561306 173.691189 
L 167.72799 173.691189 
L 167.894673 196.49958 
L 168.228039 173.691189 
L 168.394723 211.705175 
L 168.728089 173.691189 
L 168.894772 143.28 
L 169.061456 196.49958 
L 169.228139 204.102378 
L 169.394822 150.882797 
L 169.561506 158.485594 
L 169.894872 211.705175 
L 170.061555 188.896783 
L 170.228239 135.677203 
L 170.394922 150.882797 
L 170.728288 211.705175 
L 170.894972 166.088392 
L 171.061655 166.088392 
L 171.228338 204.102378 
L 171.395021 211.705175 
L 171.561705 181.293986 
L 171.728388 211.705175 
L 171.895071 173.691189 
L 172.061754 204.102378 
L 172.228438 204.102378 
L 172.395121 181.293986 
L 172.561804 173.691189 
L 172.728488 219.307972 
L 172.895171 196.49958 
L 173.061854 196.49958 
L 173.395221 128.074406 
L 173.728587 204.102378 
L 173.89527 211.705175 
L 174.061954 211.705175 
L 174.39532 196.49958 
L 174.728687 158.485594 
L 174.89537 188.896783 
L 175.062053 173.691189 
L 175.39542 196.49958 
L 175.562103 196.49958 
L 175.728786 181.293986 
L 175.895469 196.49958 
L 176.062153 143.28 
L 176.395519 211.705175 
L 176.562203 204.102378 
L 176.728886 135.677203 
L 177.062252 181.293986 
L 177.228936 173.691189 
L 177.395619 204.102378 
L 177.728985 143.28 
L 178.062352 181.293986 
L 178.229035 173.691189 
L 178.562402 204.102378 
L 178.729085 173.691189 
L 178.895768 188.896783 
L 179.062451 181.293986 
L 179.229135 166.088392 
L 179.395818 166.088392 
L 179.562501 181.293986 
L 179.729185 166.088392 
L 179.895868 128.074406 
L 180.062551 143.28 
L 180.229234 173.691189 
L 180.395918 173.691189 
L 180.562601 143.28 
L 180.729284 188.896783 
L 180.895967 166.088392 
L 181.062651 196.49958 
L 181.396017 150.882797 
L 181.5627 143.28 
L 181.729384 112.868811 
L 181.896067 120.471608 
L 182.06275 158.485594 
L 182.229433 166.088392 
L 182.396117 135.677203 
L 182.5628 166.088392 
L 182.729483 173.691189 
L 183.06285 135.677203 
L 183.229533 105.266014 
L 183.396216 150.882797 
L 183.729583 173.691189 
L 183.896266 181.293986 
L 184.062949 150.882797 
L 184.229633 150.882797 
L 184.396316 166.088392 
L 184.729682 120.471608 
L 184.896366 128.074406 
L 185.063049 150.882797 
L 185.396415 150.882797 
L 185.563099 143.28 
L 185.729782 120.471608 
L 185.896465 128.074406 
L 186.063148 166.088392 
L 186.229832 166.088392 
L 186.396515 158.485594 
L 186.563198 158.485594 
L 186.729882 143.28 
L 186.896565 150.882797 
L 187.063248 166.088392 
L 187.229931 143.28 
L 187.396615 143.28 
L 187.563298 150.882797 
L 187.729981 150.882797 
L 187.896664 105.266014 
L 188.063348 128.074406 
L 188.230031 128.074406 
L 188.396714 143.28 
L 188.563397 128.074406 
L 188.730081 143.28 
L 189.063447 143.28 
L 189.23013 150.882797 
L 189.396814 166.088392 
L 189.563497 128.074406 
L 189.73018 128.074406 
L 189.896863 143.28 
L 190.063547 143.28 
L 190.396913 120.471608 
L 190.563597 128.074406 
L 190.73028 112.868811 
L 190.896963 120.471608 
L 191.063646 105.266014 
L 191.23033 128.074406 
L 191.397013 166.088392 
L 191.563696 158.485594 
L 191.730379 135.677203 
L 191.897063 150.882797 
L 192.063746 150.882797 
L 192.230429 120.471608 
L 192.397112 128.074406 
L 192.897162 173.691189 
L 193.397212 150.882797 
L 193.563895 150.882797 
L 193.730579 158.485594 
L 193.897262 143.28 
L 194.063945 143.28 
L 194.230628 158.485594 
L 194.397312 128.074406 
L 194.563995 150.882797 
L 194.730678 120.471608 
L 194.897361 135.677203 
L 195.064045 166.088392 
L 195.230728 128.074406 
L 195.397411 166.088392 
L 195.730778 143.28 
L 195.897461 135.677203 
L 196.064144 135.677203 
L 196.230827 105.266014 
L 196.397511 112.868811 
L 196.564194 143.28 
L 196.730877 120.471608 
L 196.89756 135.677203 
L 197.064244 120.471608 
L 197.39761 74.854825 
L 197.730977 128.074406 
L 197.89766 120.471608 
L 198.064343 143.28 
L 198.231027 150.882797 
L 198.564393 112.868811 
L 198.731076 82.457622 
L 199.064443 143.28 
L 199.231126 135.677203 
L 199.397809 135.677203 
L 199.564493 128.074406 
L 199.731176 97.663217 
L 200.064542 135.677203 
L 200.564592 90.06042 
L 200.731276 90.06042 
L 200.897959 97.663217 
L 201.064642 74.854825 
L 201.231325 90.06042 
L 201.398009 74.854825 
L 201.564692 90.06042 
L 201.731375 128.074406 
L 201.898058 90.06042 
L 202.064742 82.457622 
L 202.398108 135.677203 
L 202.564791 135.677203 
L 202.731475 82.457622 
L 202.898158 128.074406 
L 203.064841 128.074406 
L 203.231524 143.28 
L 203.398208 143.28 
L 203.564891 150.882797 
L 203.898257 112.868811 
L 204.064941 128.074406 
L 204.231624 120.471608 
L 204.398307 120.471608 
L 204.564991 128.074406 
L 204.898357 166.088392 
L 205.231724 150.882797 
L 205.398407 166.088392 
L 205.56509 166.088392 
L 205.731773 143.28 
L 205.898457 143.28 
L 206.06514 150.882797 
L 206.231823 150.882797 
L 206.398506 188.896783 
L 206.56519 158.485594 
L 206.731873 166.088392 
L 206.898556 188.896783 
L 207.231923 204.102378 
L 207.731973 128.074406 
L 207.898656 158.485594 
L 208.232022 158.485594 
L 208.732072 196.49958 
L 209.065439 181.293986 
L 209.232122 181.293986 
L 209.398805 166.088392 
L 209.732172 120.471608 
L 209.898855 135.677203 
L 210.065538 166.088392 
L 210.398905 143.28 
L 210.565588 181.293986 
L 210.898954 150.882797 
L 211.065638 150.882797 
L 211.232321 143.28 
L 211.565688 143.28 
L 211.732371 166.088392 
L 211.899054 143.28 
L 212.065737 158.485594 
L 212.232421 143.28 
L 212.399104 158.485594 
L 212.565787 143.28 
L 212.73247 150.882797 
L 212.899154 196.49958 
L 213.23252 135.677203 
L 213.399203 158.485594 
L 213.73257 211.705175 
L 213.899253 211.705175 
L 214.065936 188.896783 
L 214.23262 181.293986 
L 214.565986 196.49958 
L 214.73267 188.896783 
L 214.899353 143.28 
L 215.066036 158.485594 
L 215.232719 196.49958 
L 215.399403 181.293986 
L 215.566086 150.882797 
L 215.899452 188.896783 
L 216.232819 158.485594 
L 216.399502 166.088392 
L 216.566185 204.102378 
L 216.732869 188.896783 
L 216.899552 204.102378 
L 217.232918 173.691189 
L 217.399602 188.896783 
L 217.566285 181.293986 
L 217.732968 188.896783 
L 217.899651 211.705175 
L 218.233018 188.896783 
L 218.566385 173.691189 
L 218.733068 211.705175 
L 218.899751 219.307972 
L 219.066434 234.513566 
L 219.233118 226.910769 
L 219.566484 158.485594 
L 219.733167 196.49958 
L 219.899851 196.49958 
L 220.066534 181.293986 
L 220.233217 188.896783 
L 220.3999 219.307972 
L 220.566584 219.307972 
L 220.733267 196.49958 
L 220.89995 211.705175 
L 221.066633 204.102378 
L 221.233317 181.293986 
L 221.4 173.691189 
L 221.566683 173.691189 
L 221.733367 188.896783 
L 221.90005 181.293986 
L 222.566783 181.293986 
L 222.733466 226.910769 
L 223.066833 204.102378 
L 223.233516 196.49958 
L 223.400199 181.293986 
L 223.566882 196.49958 
L 223.733566 188.896783 
L 223.900249 211.705175 
L 224.066932 204.102378 
L 224.233615 188.896783 
L 224.400299 219.307972 
L 224.566982 226.910769 
L 224.733665 204.102378 
L 224.900349 196.49958 
L 225.067032 242.116364 
L 225.233715 242.116364 
L 225.567082 150.882797 
L 225.733765 173.691189 
L 226.067131 173.691189 
L 226.233815 166.088392 
L 226.400498 188.896783 
L 226.567181 181.293986 
L 226.900548 181.293986 
L 227.067231 211.705175 
L 227.567281 173.691189 
L 227.733964 166.088392 
L 227.900647 166.088392 
L 228.06733 173.691189 
L 228.400697 204.102378 
L 228.56738 181.293986 
L 228.734064 143.28 
L 228.900747 135.677203 
L 229.234113 204.102378 
L 229.400797 219.307972 
L 229.56748 204.102378 
L 229.734163 166.088392 
L 229.900846 158.485594 
L 230.234213 173.691189 
L 230.400896 143.28 
L 230.567579 196.49958 
L 230.734263 181.293986 
L 230.900946 196.49958 
L 231.234312 158.485594 
L 231.400996 166.088392 
L 231.901046 166.088392 
L 232.067729 204.102378 
L 232.234412 173.691189 
L 232.734462 150.882797 
L 233.067828 181.293986 
L 233.234512 173.691189 
L 233.401195 204.102378 
L 233.567878 188.896783 
L 233.734561 196.49958 
L 233.901245 211.705175 
L 234.067928 204.102378 
L 234.234611 158.485594 
L 234.401294 188.896783 
L 234.567978 150.882797 
L 234.734661 143.28 
L 234.901344 181.293986 
L 235.068027 181.293986 
L 235.234711 150.882797 
L 235.401394 188.896783 
L 235.568077 188.896783 
L 235.734761 219.307972 
L 236.068127 128.074406 
L 236.23481 166.088392 
L 236.401494 173.691189 
L 236.568177 173.691189 
L 236.73486 143.28 
L 236.901543 188.896783 
L 237.068227 173.691189 
L 237.401593 196.49958 
L 237.568276 196.49958 
L 237.73496 204.102378 
L 237.901643 196.49958 
L 238.735059 120.471608 
L 238.901743 150.882797 
L 239.235109 166.088392 
L 239.401792 166.088392 
L 239.568476 150.882797 
L 239.735159 181.293986 
L 239.901842 166.088392 
L 240.068525 188.896783 
L 240.235209 158.485594 
L 240.401892 150.882797 
L 240.568575 150.882797 
L 240.735258 158.485594 
L 240.901942 135.677203 
L 241.401991 173.691189 
L 241.568675 173.691189 
L 241.735358 158.485594 
L 241.902041 166.088392 
L 242.068724 150.882797 
L 242.235408 158.485594 
L 242.402091 181.293986 
L 242.568774 188.896783 
L 242.735458 143.28 
L 242.902141 135.677203 
L 243.235507 188.896783 
L 243.402191 166.088392 
L 243.735557 166.088392 
L 244.068924 143.28 
L 244.40229 204.102378 
L 244.568973 173.691189 
L 244.735657 188.896783 
L 244.90234 166.088392 
L 245.069023 166.088392 
L 245.235706 120.471608 
L 245.569073 135.677203 
L 245.735756 128.074406 
L 245.90244 135.677203 
L 246.069123 135.677203 
L 246.235806 128.074406 
L 246.402489 112.868811 
L 246.569173 112.868811 
L 246.735856 150.882797 
L 246.902539 158.485594 
L 247.069222 143.28 
L 247.235906 143.28 
L 247.402589 150.882797 
L 247.569272 128.074406 
L 247.735955 150.882797 
L 247.902639 150.882797 
L 248.069322 143.28 
L 248.236005 166.088392 
L 248.402688 150.882797 
L 248.569372 120.471608 
L 248.736055 128.074406 
L 248.902738 158.485594 
L 249.236105 128.074406 
L 249.402788 135.677203 
L 249.569471 128.074406 
L 249.736155 143.28 
L 249.902838 90.06042 
L 250.069521 105.266014 
L 250.236204 150.882797 
L 250.402888 120.471608 
L 250.569571 143.28 
L 250.736254 112.868811 
L 251.236304 158.485594 
L 251.56967 90.06042 
L 251.736354 105.266014 
L 251.903037 97.663217 
L 252.06972 112.868811 
L 252.236403 112.868811 
L 252.403087 150.882797 
L 252.56977 158.485594 
L 252.736453 120.471608 
L 252.903137 120.471608 
L 253.06982 143.28 
L 253.236503 143.28 
L 253.403186 128.074406 
L 253.56987 150.882797 
L 254.069919 105.266014 
L 254.403286 105.266014 
L 254.569969 158.485594 
L 254.736652 158.485594 
L 254.903336 150.882797 
L 255.070019 135.677203 
L 255.403385 150.882797 
L 255.570069 166.088392 
L 255.736752 143.28 
L 255.903435 105.266014 
L 256.236802 158.485594 
L 256.403485 166.088392 
L 256.570168 135.677203 
L 256.903535 150.882797 
L 257.070218 135.677203 
L 257.236901 158.485594 
L 257.570268 128.074406 
L 257.736951 135.677203 
L 257.903634 128.074406 
L 258.070318 105.266014 
L 258.237001 128.074406 
L 258.737051 128.074406 
L 258.903734 120.471608 
L 259.070417 143.28 
L 259.2371 143.28 
L 259.73715 120.471608 
L 259.903834 135.677203 
L 260.2372 105.266014 
L 260.403883 105.266014 
L 260.570567 135.677203 
L 260.73725 120.471608 
L 261.2373 158.485594 
L 261.403983 128.074406 
L 261.570666 158.485594 
L 261.737349 150.882797 
L 261.904033 181.293986 
L 262.404082 135.677203 
L 262.570766 97.663217 
L 262.737449 135.677203 
L 262.904132 143.28 
L 263.070815 166.088392 
L 263.237499 143.28 
L 263.404182 158.485594 
L 263.570865 128.074406 
L 263.737549 158.485594 
L 263.904232 150.882797 
L 264.070915 135.677203 
L 264.237598 166.088392 
L 264.404282 135.677203 
L 264.570965 143.28 
L 264.737648 128.074406 
L 264.904331 135.677203 
L 265.071015 150.882797 
L 265.237698 143.28 
L 265.404381 120.471608 
L 265.571064 112.868811 
L 265.737748 173.691189 
L 265.904431 166.088392 
L 266.071114 188.896783 
L 266.237797 181.293986 
L 266.404481 135.677203 
L 266.571164 128.074406 
L 266.904531 173.691189 
L 267.071214 166.088392 
L 267.40458 181.293986 
L 267.571264 173.691189 
L 267.737947 150.882797 
L 267.90463 150.882797 
L 268.071313 173.691189 
L 268.237997 173.691189 
L 268.738046 150.882797 
L 269.071413 166.088392 
L 269.238096 150.882797 
L 269.404779 173.691189 
L 269.571463 143.28 
L 269.738146 158.485594 
L 269.904829 143.28 
L 270.071512 143.28 
L 270.238196 166.088392 
L 270.404879 143.28 
L 270.571562 173.691189 
L 270.738246 158.485594 
L 270.904929 166.088392 
L 271.071612 181.293986 
L 271.238295 158.485594 
L 271.404979 150.882797 
L 271.571662 196.49958 
L 272.071712 135.677203 
L 272.405078 211.705175 
L 272.571761 219.307972 
L 272.738445 219.307972 
L 272.905128 204.102378 
L 273.071811 204.102378 
L 273.405178 173.691189 
L 273.571861 173.691189 
L 273.738544 211.705175 
L 273.905228 196.49958 
L 274.071911 211.705175 
L 274.405277 188.896783 
L 274.571961 188.896783 
L 274.738644 173.691189 
L 274.905327 181.293986 
L 275.07201 173.691189 
L 275.238694 150.882797 
L 275.405377 173.691189 
L 275.57206 173.691189 
L 275.738743 181.293986 
L 275.905427 181.293986 
L 276.07211 173.691189 
L 276.238793 196.49958 
L 276.405476 188.896783 
L 276.57216 166.088392 
L 276.738843 166.088392 
L 276.905526 181.293986 
L 277.238893 166.088392 
L 277.405576 150.882797 
L 277.572259 188.896783 
L 277.738943 188.896783 
L 277.905626 158.485594 
L 278.072309 173.691189 
L 278.238992 166.088392 
L 278.405676 219.307972 
L 278.739042 181.293986 
L 278.905725 226.910769 
L 279.072409 211.705175 
L 279.405775 158.485594 
L 279.572458 211.705175 
L 279.739142 204.102378 
L 279.905825 166.088392 
L 280.239191 226.910769 
L 280.405875 188.896783 
L 280.572558 181.293986 
L 280.739241 181.293986 
L 280.905925 166.088392 
L 281.239291 188.896783 
L 281.572658 188.896783 
L 281.739341 173.691189 
L 281.906024 173.691189 
L 282.072707 188.896783 
L 282.239391 226.910769 
L 282.406074 226.910769 
L 282.572757 219.307972 
L 282.73944 234.513566 
L 282.906124 226.910769 
L 283.072807 188.896783 
L 283.23949 188.896783 
L 283.406173 181.293986 
L 283.906223 181.293986 
L 284.072907 242.116364 
L 284.406273 242.116364 
L 284.572956 188.896783 
L 284.73964 188.896783 
L 284.906323 181.293986 
L 285.073006 211.705175 
L 285.239689 204.102378 
L 285.406373 204.102378 
L 285.573056 196.49958 
L 285.739739 181.293986 
L 285.906422 188.896783 
L 286.239789 211.705175 
L 286.573155 173.691189 
L 286.739839 188.896783 
L 286.906522 166.088392 
L 287.073205 166.088392 
L 287.239888 158.485594 
L 287.406572 166.088392 
L 287.573255 158.485594 
L 287.739938 158.485594 
L 287.906622 181.293986 
L 288.073305 173.691189 
L 288.239988 158.485594 
L 288.406671 158.485594 
L 288.740038 196.49958 
L 288.906721 181.293986 
L 289.406771 181.293986 
L 289.573454 196.49958 
L 289.740137 181.293986 
L 289.906821 181.293986 
L 290.073504 188.896783 
L 290.40687 173.691189 
L 290.573554 181.293986 
L 290.740237 196.49958 
L 290.90692 173.691189 
L 291.073604 196.49958 
L 291.240287 173.691189 
L 291.573653 196.49958 
L 291.740337 188.896783 
L 291.90702 204.102378 
L 292.240386 158.485594 
L 292.40707 173.691189 
L 292.573753 158.485594 
L 292.740436 188.896783 
L 292.907119 181.293986 
L 293.073803 211.705175 
L 293.240486 181.293986 
L 293.407169 173.691189 
L 293.573852 173.691189 
L 293.740536 166.088392 
L 293.907219 173.691189 
L 294.073902 211.705175 
L 294.240585 181.293986 
L 294.407269 204.102378 
L 294.573952 204.102378 
L 294.740635 166.088392 
L 294.907319 158.485594 
L 295.240685 181.293986 
L 295.407368 158.485594 
L 295.740735 196.49958 
L 295.907418 196.49958 
L 296.074101 173.691189 
L 296.240785 196.49958 
L 296.407468 188.896783 
L 296.574151 166.088392 
L 296.740834 196.49958 
L 296.907518 204.102378 
L 297.074201 196.49958 
L 297.240884 211.705175 
L 297.574251 120.471608 
L 297.740934 166.088392 
L 297.907617 166.088392 
L 298.074301 188.896783 
L 298.240984 188.896783 
L 298.407667 120.471608 
L 298.741034 150.882797 
L 298.907717 181.293986 
L 299.241083 112.868811 
L 299.407767 173.691189 
L 299.57445 181.293986 
L 299.741133 204.102378 
L 299.907816 211.705175 
L 300.241183 173.691189 
L 300.574549 173.691189 
L 300.741233 196.49958 
L 300.907916 173.691189 
L 301.074599 105.266014 
L 301.241282 158.485594 
L 301.407966 173.691189 
L 301.574649 173.691189 
L 301.741332 143.28 
L 301.908016 166.088392 
L 302.074699 166.088392 
L 302.241382 181.293986 
L 302.574749 120.471608 
L 302.741432 158.485594 
L 302.908115 150.882797 
L 303.074798 158.485594 
L 303.241482 173.691189 
L 303.408165 173.691189 
L 303.574848 158.485594 
L 303.908215 97.663217 
L 304.074898 150.882797 
L 304.408264 150.882797 
L 304.574948 158.485594 
L 304.741631 158.485594 
L 304.908314 188.896783 
L 305.074998 143.28 
L 305.241681 150.882797 
L 305.408364 120.471608 
L 305.575047 135.677203 
L 305.741731 135.677203 
L 306.075097 181.293986 
L 306.24178 158.485594 
L 306.408464 181.293986 
L 306.575147 135.677203 
L 306.74183 59.649231 
L 306.908513 158.485594 
L 307.075197 166.088392 
L 307.24188 150.882797 
L 307.408563 158.485594 
L 307.575246 150.882797 
L 307.908613 173.691189 
L 308.241979 143.28 
L 308.408663 150.882797 
L 308.575346 173.691189 
L 308.742029 158.485594 
L 308.908713 166.088392 
L 309.075396 128.074406 
L 309.242079 150.882797 
L 309.408762 143.28 
L 309.575446 150.882797 
L 309.742129 150.882797 
L 309.908812 158.485594 
L 310.075495 150.882797 
L 310.242179 120.471608 
L 310.408862 150.882797 
L 310.742228 166.088392 
L 310.908912 135.677203 
L 311.075595 158.485594 
L 311.408961 120.471608 
L 311.575645 150.882797 
L 312.075695 150.882797 
L 312.242378 120.471608 
L 312.575744 120.471608 
L 312.742428 143.28 
L 312.909111 128.074406 
L 313.242477 150.882797 
L 313.409161 135.677203 
L 313.575844 158.485594 
L 313.742527 143.28 
L 313.90921 150.882797 
L 314.075894 135.677203 
L 314.242577 143.28 
L 314.40926 135.677203 
L 314.742627 135.677203 
L 314.90931 97.663217 
L 315.075993 120.471608 
L 315.242676 128.074406 
L 315.40936 158.485594 
L 315.576043 150.882797 
L 315.742726 158.485594 
L 315.90941 135.677203 
L 316.076093 150.882797 
L 316.242776 128.074406 
L 316.576143 128.074406 
L 316.742826 150.882797 
L 316.909509 143.28 
L 317.076192 112.868811 
L 317.409559 143.28 
L 317.576242 120.471608 
L 317.909609 135.677203 
L 318.076292 166.088392 
L 318.242975 143.28 
L 318.409658 97.663217 
L 318.576342 128.074406 
L 318.743025 105.266014 
L 318.909708 135.677203 
L 319.076392 143.28 
L 319.243075 143.28 
L 319.409758 128.074406 
L 319.576441 135.677203 
L 319.909808 120.471608 
L 320.243174 158.485594 
L 320.409858 135.677203 
L 320.743224 150.882797 
L 320.909907 166.088392 
L 321.243274 120.471608 
L 321.409957 105.266014 
L 321.743324 166.088392 
L 321.910007 143.28 
L 322.07669 143.28 
L 322.243373 166.088392 
L 322.410057 158.485594 
L 322.910107 128.074406 
L 323.07679 135.677203 
L 323.410156 166.088392 
L 323.57684 150.882797 
L 323.743523 173.691189 
L 324.076889 128.074406 
L 324.243573 120.471608 
L 324.410256 82.457622 
L 324.576939 74.854825 
L 324.743622 112.868811 
L 324.910306 82.457622 
L 325.076989 82.457622 
L 325.410355 120.471608 
L 325.577039 120.471608 
L 325.910405 105.266014 
L 326.077089 112.868811 
L 326.243772 105.266014 
L 326.410455 105.266014 
L 327.077188 158.485594 
L 327.410555 120.471608 
L 327.577238 135.677203 
L 327.743921 135.677203 
L 327.910604 120.471608 
L 328.077288 158.485594 
L 328.410654 112.868811 
L 328.577337 112.868811 
L 328.744021 128.074406 
L 328.910704 120.471608 
L 329.077387 120.471608 
L 329.24407 128.074406 
L 329.410754 120.471608 
L 329.577437 120.471608 
L 329.74412 97.663217 
L 329.910804 105.266014 
L 330.077487 82.457622 
L 330.410853 158.485594 
L 330.577537 181.293986 
L 330.74422 173.691189 
L 330.910903 173.691189 
L 331.077586 166.088392 
L 331.24427 196.49958 
L 331.410953 181.293986 
L 331.577636 196.49958 
L 331.744319 181.293986 
L 331.911003 181.293986 
L 332.244369 166.088392 
L 332.411052 166.088392 
L 332.577736 150.882797 
L 332.911102 173.691189 
L 333.077786 166.088392 
L 333.244469 181.293986 
L 333.744519 128.074406 
L 333.911202 173.691189 
L 334.577935 143.28 
L 334.744618 158.485594 
L 334.911301 196.49958 
L 335.077985 173.691189 
L 335.244668 166.088392 
L 335.578034 211.705175 
L 335.744718 188.896783 
L 335.911401 196.49958 
L 336.244767 181.293986 
L 336.411451 204.102378 
L 336.578134 173.691189 
L 336.911501 204.102378 
L 337.078184 204.102378 
L 337.578234 143.28 
L 337.9116 166.088392 
L 338.078283 211.705175 
L 338.244967 204.102378 
L 338.41165 211.705175 
L 338.578333 204.102378 
L 338.745016 204.102378 
L 338.9117 181.293986 
L 339.078383 181.293986 
L 339.245066 211.705175 
L 339.411749 196.49958 
L 339.578433 166.088392 
L 339.911799 196.49958 
L 340.078483 188.896783 
L 340.245166 166.088392 
L 340.411849 188.896783 
L 340.578532 188.896783 
L 340.745216 181.293986 
L 341.078582 196.49958 
L 341.245265 181.293986 
L 341.578632 196.49958 
L 341.745315 242.116364 
L 341.911998 234.513566 
L 342.078682 188.896783 
L 342.245365 181.293986 
L 342.412048 181.293986 
L 342.578731 166.088392 
L 342.912098 166.088392 
L 343.078781 158.485594 
L 343.245465 158.485594 
L 343.412148 166.088392 
L 343.745514 211.705175 
L 343.912198 211.705175 
L 344.078881 204.102378 
L 344.245564 188.896783 
L 344.412247 188.896783 
L 344.578931 211.705175 
L 344.745614 204.102378 
L 344.912297 188.896783 
L 345.07898 204.102378 
L 345.412347 181.293986 
L 345.57903 196.49958 
L 345.745713 188.896783 
L 345.912397 211.705175 
L 346.07908 219.307972 
L 346.245763 219.307972 
L 346.412446 188.896783 
L 346.57913 181.293986 
L 346.745813 242.116364 
L 346.912496 242.116364 
L 347.07918 226.910769 
L 347.245863 181.293986 
L 347.412546 234.513566 
L 347.579229 211.705175 
L 347.745913 166.088392 
L 347.912596 196.49958 
L 348.079279 196.49958 
L 348.245962 188.896783 
L 348.412646 204.102378 
L 348.579329 196.49958 
L 348.746012 196.49958 
L 348.912695 158.485594 
L 349.079379 166.088392 
L 349.246062 166.088392 
L 349.412745 173.691189 
L 349.579428 188.896783 
L 349.746112 188.896783 
L 349.912795 211.705175 
L 350.246162 196.49958 
L 350.579528 158.485594 
L 350.746211 181.293986 
L 351.246261 181.293986 
L 351.412944 211.705175 
L 351.579628 219.307972 
L 351.746311 204.102378 
L 351.912994 166.088392 
L 352.079677 196.49958 
L 352.246361 166.088392 
L 352.413044 173.691189 
L 352.579727 188.896783 
L 352.74641 166.088392 
L 352.913094 219.307972 
L 353.413143 166.088392 
L 353.579827 188.896783 
L 353.74651 181.293986 
L 353.913193 188.896783 
L 354.24656 173.691189 
L 354.579926 211.705175 
L 354.913293 150.882797 
L 355.079976 166.088392 
L 355.246659 158.485594 
L 355.580026 158.485594 
L 355.746709 181.293986 
L 355.913392 188.896783 
L 356.080076 204.102378 
L 356.413442 173.691189 
L 356.580125 181.293986 
L 356.746809 173.691189 
L 356.913492 181.293986 
L 357.080175 196.49958 
L 357.413542 143.28 
L 357.580225 196.49958 
L 357.746908 196.49958 
L 358.080275 181.293986 
L 358.246958 188.896783 
L 358.413641 166.088392 
L 358.747008 188.896783 
L 359.080374 120.471608 
L 359.247058 196.49958 
L 359.580424 158.485594 
L 359.747107 143.28 
L 359.913791 166.088392 
L 360.080474 135.677203 
L 360.41384 188.896783 
L 360.747207 173.691189 
L 360.91389 120.471608 
L 361.080574 128.074406 
L 361.247257 150.882797 
L 361.41394 196.49958 
L 361.747307 181.293986 
L 362.080673 150.882797 
L 362.247356 166.088392 
L 362.41404 166.088392 
L 362.580723 196.49958 
L 363.080773 135.677203 
L 363.247456 158.485594 
L 363.414139 196.49958 
L 363.580822 188.896783 
L 363.747506 158.485594 
L 363.914189 173.691189 
L 364.414239 112.868811 
L 364.747605 143.28 
L 364.914289 128.074406 
L 365.080972 143.28 
L 365.247655 135.677203 
L 365.414338 135.677203 
L 365.581022 128.074406 
L 365.747705 82.457622 
L 365.914388 166.088392 
L 366.081071 173.691189 
L 366.247755 150.882797 
L 366.414438 150.882797 
L 366.581121 158.485594 
L 366.747804 143.28 
L 366.914488 166.088392 
L 367.081171 166.088392 
L 367.247854 181.293986 
L 367.581221 120.471608 
L 367.747904 120.471608 
L 368.081271 143.28 
L 368.247954 150.882797 
L 368.58132 150.882797 
L 368.748004 128.074406 
L 368.914687 128.074406 
L 369.08137 120.471608 
L 369.248053 120.471608 
L 369.414737 135.677203 
L 369.58142 105.266014 
L 369.748103 120.471608 
L 369.914786 120.471608 
L 370.08147 135.677203 
L 370.248153 128.074406 
L 370.581519 143.28 
L 371.081569 143.28 
L 371.248253 150.882797 
L 371.414936 150.882797 
L 371.914986 128.074406 
L 372.248352 150.882797 
L 372.415035 143.28 
L 372.748402 143.28 
L 373.081768 166.088392 
L 373.248452 150.882797 
L 373.415135 120.471608 
L 373.581818 135.677203 
L 373.581818 135.677203 
" style="fill:none;stroke:#1f77b4;stroke-linecap:square;stroke-width:1.5;"/>
   </g>
   <g id="patch_3">
    <path d="M 54 252 
L 54 34.56 
" style="fill:none;stroke:#000000;stroke-linecap:square;stroke-linejoin:miter;stroke-width:0.8;"/>
   </g>
   <g id="patch_4">
    <path d="M 388.8 252 
L 388.8 34.56 
" style="fill:none;stroke:#000000;stroke-linecap:square;stroke-linejoin:miter;stroke-width:0.8;"/>
   </g>
   <g id="patch_5">
    <path d="M 54 252 
L 388.8 252 
" style="fill:none;stroke:#000000;stroke-linecap:square;stroke-linejoin:miter;stroke-width:0.8;"/>
   </g>
   <g id="patch_6">
    <path d="M 54 34.56 
L 388.8 34.56 
" style="fill:none;stroke:#000000;stroke-linecap:square;stroke-linejoin:miter;stroke-width:0.8;"/>
   </g>
  </g>
 </g>
 <defs>
  <clipPath id="pa30b328348">
   <rect height="217.44" width="334.8" x="54" y="34.56"/>
  </clipPath>
 </defs>
</svg>
