<svg height="232" viewBox="0 0 640 232" width="640" xmlns="http://www.w3.org/2000/svg" xmlns:xlink="http://www.w3.org/1999/xlink"><defs><path id="a" d="m96.4247388 11 .5128993.0046154c2.387363.0434602 4.6870339.3991846 6.8421009 1.2923846l.467948.203029c7.879472 3.571066 11.938725 13.1776441 17.991052 19.229971l.360046.3537653c6.188023 5.9764392 15.742262 10.0747155 19.072954 18.1062347l.173201.4370994c1.770859 4.6826729 1.113375 10.0087188.299799 15.4429006l-.081065.3397919c-.640255 2.7413729-1.078975 6.0448481-1.079935 10.5722081v.007l.002277.5607697c.036296 4.4357391.503163 7.6706703 1.161723 10.3692303l.075562.5084878c.799608 5.4201706 1.371347 10.716391-.551562 15.3525122l-.203028.468004c-3.571029 7.880378-13.176645 11.938669-19.228972 17.990996l-.353766.360103c-2.109331 2.184341-3.984704 4.787883-5.881618 7.389012l-.633453.866376c-3.280584 4.469835-6.709259 8.793567-11.591163 10.817509l-.4371.173202c-4.6826724 1.770858-10.0087184 1.113374-15.4429002.299798l-.3397966-.081064c-2.7414482-.640254-6.0458834-1.078936-10.5742034-1.078936h-.005l-.5606544.002272c-4.4348544.036222-7.6697856.502168-10.3683456 1.160728l-.5085759.075647c-5.4210825.800463-10.7173029 1.371262-15.3534241-.551647l-.4679495-.202971c-4.9440054-2.240054-8.384375-6.856272-11.7566663-11.480217l-.6318573-.866502c-1.789988-2.452069-3.5860846-4.864541-5.6035269-6.88231l-.3601019-.353764c-6.1889288-5.976403-15.7422058-10.073736-19.0728981-18.106236l-.1698613-.428384c-1.1407189-3.011445-1.2765023-6.288616-1.0111387-9.690616l.0743664-.2745836c1.0823334-4.0286594 1.7936559-8.1509053 1.7946336-16.4004164v-.005l-.0022771-.5606497c-.0362957-4.4347807-.5031629-7.6687903-1.1617229-10.3673503l-.0755616-.508576c-.7996083-5.4210833-1.3713475-10.7173331.5515616-15.354424l.203028-.4679495c3.5710294-7.8795087 13.1766643-11.9397236 19.229972-17.9920505l.3537654-.3600453c5.9764391-6.1879858 10.0747154-15.7412816 18.1062346-19.0729547l.4370994-.1731134c4.6826738-1.7699463 10.0087491-1.1124624 15.4439006-.2988866l.3397873.0809492c2.7413007.6393708 6.0438927 1.0780908 10.5722127 1.0790508h.006l.5608803-.0022771c4.4365517-.0362957 7.6705997-.5031629 10.3701197-1.1617229 2.893-.433 5.755-.821 8.505-.821zm-19.4247388 36c-16.5685425 0-30 13.4314575-30 30s13.4314575 30 30 30 30-13.4314575 30-30-13.4314575-30-30-30z"/><mask id="b" fill="#fff"><use fill="#fff" fill-rule="evenodd" xlink:href="#a"/></mask></defs><g fill="none" fill-rule="evenodd"><path d="m0 0h640v232h-640z" fill="#f5fcff"/><path d="m640 0v232h-640v-232zm-1 1h-638v230h638z" fill="#10162f" fill-rule="nonzero"/><g transform="translate(243 39)"><path d="m77 .5c21.1248917 0 40.249892 8.56255416 54.093669 22.4063312 13.843777 13.8437771 22.406331 32.9687771 22.406331 54.0936688s-8.562554 40.249892-22.406331 54.093669-32.9687773 22.406331-54.093669 22.406331-40.2498917-8.562554-54.0936688-22.406331c-13.84377704-13.843777-22.4063312-32.9687773-22.4063312-54.093669s8.56255416-40.2498917 22.4063312-54.0936688c13.8437771-13.84377704 32.9687771-22.4063312 54.0936688-22.4063312zm0 46c-8.4223424 0-16.0473424 3.4138288-21.5667568 8.9332432s-8.9332432 13.1444144-8.9332432 21.5667568 3.4138288 16.0473424 8.9332432 21.5667568c5.5194144 5.5194142 13.1444144 8.9332432 21.5667568 8.9332432s16.0473424-3.413829 21.5667568-8.9332432c5.5194142-5.5194144 8.9332432-13.1444144 8.9332432-21.5667568s-3.413829-16.0473424-8.9332432-21.5667568c-5.5194144-5.5194144-13.1444144-8.9332432-21.5667568-8.9332432z" fill="#fffae5" stroke="#10162f"/><use fill="#f966ff" stroke="#10162f" xlink:href="#a"/><g stroke-linecap="square"><path d="m99.531089 34.25-6.062178 3.5" mask="url(#b)" stroke="#66c4ff"/><path d="m74.025126 128.525126 4.949748 4.949748" mask="url(#b)" stroke="#66c4ff"/><path d="m116.531089 113.25-6.062178 3.5" mask="url(#b)" stroke="#66c4ff"/><path d="m44.531089 118.25-6.062178 3.5" mask="url(#b)" stroke="#66c4ff"/><path d="m40.531089 79.25-6.062178 3.5" mask="url(#b)" stroke="#66c4ff"/><path d="m122.531089 69.25-6.062178 3.5" mask="url(#b)" stroke="#66c4ff"/><path d="m60.531089 19.25-6.062178 3.5" mask="url(#b)" stroke="#66c4ff"/><path d="m128.025126 89.525126 4.949748 4.949748" mask="url(#b)" stroke="#aee938"/><path d="m32.025126 60.525126 4.949748 4.949748" mask="url(#b)" stroke="#aee938"/><path d="m47.025126 102.525126 4.949748 4.949748" mask="url(#b)" stroke="#aee938"/><path d="m109.025126 55.525126 4.949748 4.949748" mask="url(#b)" stroke="#aee938"/><path d="m95.025126 110.525126 4.949748 4.949748" mask="url(#b)" stroke="#aee938"/><path d="m79.025126 20.525126 4.949748 4.949748" mask="url(#b)" stroke="#aee938"/><path d="m49.974874 38.474874-4.949748-4.949748" mask="url(#b)" stroke="#aee938"/><path d="m25.974874 92.474874-4.949748-4.949748" mask="url(#b)" stroke="#aee938"/><g stroke="#ffd300"><path d="m66.531089 121.25-6.062178 3.5" mask="url(#b)"/><path d="m34.531089 103.25-6.062178 3.5" mask="url(#b)"/><path d="m100.531089 17.25-6.062178 3.5" mask="url(#b)"/><path d="m134.531089 55.25-6.062178 3.5" mask="url(#b)"/><path d="m70.531089 38.25-6.062178 3.5" mask="url(#b)"/><path d="m95.025126 128.525126 4.949748 4.949748" mask="url(#b)"/><path d="m27.531089 49.25-6.062178 3.5" mask="url(#b)"/><path d="m109.025126 41.525126 4.949748 4.949748" mask="url(#b)"/><path d="m113.025126 92.525126 4.949748 4.949748" mask="url(#b)"/></g></g></g></g></svg>