<svg height="232" viewBox="0 0 640 232" width="640" xmlns="http://www.w3.org/2000/svg"><g fill="none" fill-rule="evenodd"><path d="m0 0h640v232h-640z" fill="#f5fcff"/><g fill="#ff8c00"><circle cx="441.5" cy="108.5" r="11.5"/><circle cx="418.5" cy="108.5" r="11.5"/><circle cx="394.5" cy="108.5" r="11.5"/><circle cx="370.5" cy="108.5" r="11.5"/></g><path d="m441.5 97c6.351275 0 11.5 5.148725 11.5 11.5s-5.148725 11.5-11.5 11.5-11.5-5.148725-11.5-11.5 5.148725-11.5 11.5-11.5zm0 1c-5.79899 0-10.5 4.70101-10.5 10.5s4.70101 10.5 10.5 10.5 10.5-4.70101 10.5-10.5-4.70101-10.5-10.5-10.5z" fill="#10162f" fill-rule="nonzero"/><path d="m418.5 97c6.351275 0 11.5 5.148725 11.5 11.5s-5.148725 11.5-11.5 11.5-11.5-5.148725-11.5-11.5 5.148725-11.5 11.5-11.5zm0 1c-5.79899 0-10.5 4.70101-10.5 10.5s4.70101 10.5 10.5 10.5 10.5-4.70101 10.5-10.5-4.70101-10.5-10.5-10.5z" fill="#10162f" fill-rule="nonzero"/><circle cx="428.5" cy="94.5" fill="#ff8c00" r="11.5"/><path d="m428.5 83c6.351275 0 11.5 5.1487254 11.5 11.5 0 6.351275-5.148725 11.5-11.5 11.5s-11.5-5.148725-11.5-11.5c0-6.3512746 5.148725-11.5 11.5-11.5zm0 1c-5.79899 0-10.5 4.7010101-10.5 10.5 0 5.79899 4.70101 10.5 10.5 10.5s10.5-4.70101 10.5-10.5c0-5.7989899-4.70101-10.5-10.5-10.5z" fill="#10162f" fill-rule="nonzero"/><path d="m394.5 97c6.351275 0 11.5 5.148725 11.5 11.5s-5.148725 11.5-11.5 11.5-11.5-5.148725-11.5-11.5 5.148725-11.5 11.5-11.5zm0 1c-5.79899 0-10.5 4.70101-10.5 10.5s4.70101 10.5 10.5 10.5 10.5-4.70101 10.5-10.5-4.70101-10.5-10.5-10.5z" fill="#10162f" fill-rule="nonzero"/><circle cx="406.5" cy="94.5" fill="#ff8c00" r="11.5"/><path d="m406.5 83c6.351275 0 11.5 5.1487254 11.5 11.5 0 6.351275-5.148725 11.5-11.5 11.5s-11.5-5.148725-11.5-11.5c0-6.3512746 5.148725-11.5 11.5-11.5zm0 1c-5.79899 0-10.5 4.7010101-10.5 10.5 0 5.79899 4.70101 10.5 10.5 10.5s10.5-4.70101 10.5-10.5c0-5.7989899-4.70101-10.5-10.5-10.5z" fill="#10162f" fill-rule="nonzero"/><circle cx="417.5" cy="78.5" fill="#ff8c00" r="11.5"/><path d="m417.5 67c6.351275 0 11.5 5.1487254 11.5 11.5s-5.148725 11.5-11.5 11.5-11.5-5.1487254-11.5-11.5 5.148725-11.5 11.5-11.5zm0 1c-5.79899 0-10.5 4.7010101-10.5 10.5s4.70101 10.5 10.5 10.5 10.5-4.7010101 10.5-10.5-4.70101-10.5-10.5-10.5z" fill="#10162f" fill-rule="nonzero"/><path d="m370.5 97c6.351275 0 11.5 5.148725 11.5 11.5s-5.148725 11.5-11.5 11.5-11.5-5.148725-11.5-11.5 5.148725-11.5 11.5-11.5zm0 1c-5.79899 0-10.5 4.70101-10.5 10.5s4.70101 10.5 10.5 10.5 10.5-4.70101 10.5-10.5-4.70101-10.5-10.5-10.5z" fill="#10162f" fill-rule="nonzero"/><circle cx="384.5" cy="94.5" fill="#ff8c00" r="11.5"/><path d="m384.5 83c6.351275 0 11.5 5.1487254 11.5 11.5 0 6.351275-5.148725 11.5-11.5 11.5s-11.5-5.148725-11.5-11.5c0-6.3512746 5.148725-11.5 11.5-11.5zm0 1c-5.79899 0-10.5 4.7010101-10.5 10.5 0 5.79899 4.70101 10.5 10.5 10.5s10.5-4.70101 10.5-10.5c0-5.7989899-4.70101-10.5-10.5-10.5z" fill="#10162f" fill-rule="nonzero"/><circle cx="395.5" cy="78.5" fill="#ff8c00" r="11.5"/><g fill="#10162f"><path d="m395.5 67c6.351275 0 11.5 5.1487254 11.5 11.5s-5.148725 11.5-11.5 11.5-11.5-5.1487254-11.5-11.5 5.148725-11.5 11.5-11.5zm0 1c-5.79899 0-10.5 4.7010101-10.5 10.5s4.70101 10.5 10.5 10.5 10.5-4.7010101 10.5-10.5-4.70101-10.5-10.5-10.5z" fill-rule="nonzero"/><path d="m640 0v232h-640v-232zm-1 1h-638v230h638z" fill-rule="nonzero"/><path d="m230 103h108v73h-108z"/></g><path d="m197.5 120c6.294922 2.258789 11.5-5.148725 11.5-11.5s-4.71875-13.90625-11.5-11.5c-6.446777-1.9931641-11.5 5.148725-11.5 11.5s5.419922 13.838867 11.5 11.5z" fill="#e91c11"/><path d="m173.5 120c6.294922 2.258789 11.5-5.148725 11.5-11.5s-4.71875-13.90625-11.5-11.5c-6.446777-1.9931641-11.5 5.148725-11.5 11.5s5.419922 13.838867 11.5 11.5z" fill="#e91c11"/><path d="m352 103h108v73h-108z" fill="#10162f"/><path d="m489.055983 126.888017h20.77172l-2.832508 27.411361h-20.771719z" fill="#fff" transform="matrix(.98162718 -.190809 .190809 .98162718 -17.676409 97.610865)"/><path d="m262 120h43v38h-43z" fill="#fff"/><path d="m5.54487616 2.13143498h22.11183074l-3.0152497 28.93421382h-22.11183069z" fill="#fff" transform="matrix(.98162718 .190809 -.190809 .98162718 501.605411 110.338832)"/><path d="m27.101894 2.63143498-2.9110391 27.93421382h-21.1064155l2.91103912-27.93421382z" stroke="#10162f" transform="matrix(.98162718 .190809 -.190809 .98162718 501.605411 110.338832)"/><path d="m509.827703 126.888017-2.832508 27.411361h-20.771719l2.832507-27.411361zm-1.109703.999983h-18.761l-2.625 25.411h18.761z" fill="#10162f" fill-rule="nonzero" transform="matrix(.98162718 -.190809 .190809 .98162718 -17.676409 97.610865)"/><path d="m503.944406 132.796604h22.11183l-3.015249 28.934214h-22.111831z" fill="#fff" transform="matrix(.98162718 .190809 -.190809 .98162718 37.533548 -95.273376)"/><path d="m526.056236 132.796604-3.015249 28.934214h-22.111831l3.01525-28.934214zm-1.110236.999396h-20.1l-2.808 26.934h20.101z" fill="#10162f" fill-rule="nonzero" transform="matrix(.98162718 .190809 -.190809 .98162718 37.533548 -95.273376)"/><path d="m498.95453 144.502284h20.77172l-2.832508 27.41136h-20.771719z" fill="#fff" transform="matrix(.98162718 -.190809 .190809 .98162718 -20.855506 99.82322)"/><path d="m519.72625 144.502284-2.832508 27.41136h-20.771719l2.832507-27.41136zm-1.10925.999716h-18.761l-2.626 25.411h18.762z" fill="#10162f" fill-rule="nonzero" transform="matrix(.98162718 -.190809 .190809 .98162718 -20.855506 99.82322)"/><g transform="matrix(.98162718 .190809 -.190809 .98162718 493.76123 90.554322)"><path d="m5.37405433.07047502h33.43999997l-4.56 43.99999998h-33.43999997z" fill="#fff"/><path d="m38.4890623.50369117-4.4562901 42.99929013-33.47789353.2220387 4.45629008-42.99929018z" fill="#fff" stroke="#10162f"/><g fill="#ffd300"><path d="m15.7573158 38.2401572c3.2766897 0 5.9329714-8.8545542 5.9329714-13.3491856s-2.6562817-13.3491857-5.9329714-13.3491857c-3.2766896 0 0 7.3235116 0 13.3491857 0 6.025674-3.2766896 13.3491856 0 13.3491856z" transform="matrix(.58778525 .80901699 -.80901699 .58778525 27.555291 -4.298359)"/><path d="m17.6643424 40.1471837c3.2766896 0 5.9329713-8.8545542 5.9329713-13.3491856s-2.6562817-13.3491856-5.9329713-13.3491856c-3.2766897 0 0 7.3235115 0 13.3491856s-3.2766897 13.3491856 0 13.3491856z" transform="matrix(.70710678 .70710678 -.70710678 .70710678 24.778405 -6.224365)"/><path d="m19.5713689 42.0542102c3.2766896 0 5.9329714-8.8545542 5.9329714-13.3491856s-2.6562818-13.3491856-5.9329714-13.3491856 0 7.3235115 0 13.3491856-3.2766896 13.3491856 0 13.3491856z" transform="matrix(.81915204 .57357644 -.57357644 .81915204 20.408766 -7.318285)"/><g stroke="#10162f"><path d="m15.7573158 12.0417859c.5635467 0 1.0881984.3481652 1.5844879.8759691.6519098.6933059 1.2445486 1.706653 1.7629188 2.8729859 1.2726957 2.8635652 2.0855647 6.6458728 2.0855647 9.1002307 0 2.4543578-.812869 6.2366654-2.0855647 9.1002307-.5183702 1.1663329-1.111009 2.1796799-1.7629188 2.8729859-.4962895.5278038-1.0209412.875969-1.5844879.875969-.2658965 0-.4729139-.0607371-.6160883-.2083881-.1804036-.1860443-.2620813-.4721924-.3064408-.8180398-.1495436-1.1659122.195037-2.9489634.5697576-4.9651912.0996776-.5363274.2023178-1.0886486.3006022-1.6522215l.0964402-.5665722c.2549575-1.5390445.4557291-3.1290033.4557291-4.6387728 0-1.5097696-.2007716-3.0997284-.4560968-4.6409627l-.0964169-.566381c-.09794-.5615743-.2005802-1.1138955-.3002578-1.6502228-.3747206-2.0162278-.7193012-3.7992791-.5697576-4.9651913.0443595-.3458474.1260372-.6319954.3064408-.8180397.1431744-.147651.3501918-.2083882.6160883-.2083882z" transform="matrix(.58778525 .80901699 -.80901699 .58778525 27.555291 -4.298359)"/><path d="m17.2654271 14.2776528c.5635467 0 1.0881983.3481652 1.5844879.875969.6519098.693306 1.2445486 1.706653 1.7629188 2.872986 1.2726957 2.8635652 2.0855647 6.6458728 2.0855647 9.1002306 0 2.4543579-.812869 6.2366655-2.0855647 9.1002307-.5183702 1.166333-1.111009 2.17968-1.7629188 2.872986-.4962896.5278038-1.0209412.875969-1.5844879.875969-.2658965 0-.472914-.0607372-.6160883-.2083881-.1804037-.1860443-.2620814-.4721924-.3064409-.8180398-.1495435-1.1659122.1950371-2.9489635.5697576-4.9651912.4037412-2.1723765.8527716-4.6046668.8527716-6.8575666 0-2.2528997-.4490304-4.68519-.8527716-6.8575665-.3747205-2.0162277-.7193011-3.799279-.5697576-4.9651912.0443595-.3458474.1260372-.6319955.3064409-.8180398.1431743-.1476509.3501918-.2083881.6160883-.2083881z" transform="matrix(.70710678 .70710678 -.70710678 .70710678 24.89409 -5.845974)"/><path d="m19.5429924 14.5364642c.6199674 0 1.1988141.3799288 1.7455516.9613841.7084514.753438 1.3529249 1.854412 1.9162807 3.1219624 1.3802309 3.1055196 2.2614978 7.2074407 2.2614978 9.8691463s-.8812669 6.7636267-2.2614978 9.8691462c-.5633558 1.2675505-1.2078293 2.3685245-1.9162807 3.1219625-.5467375.5814552-1.1255842.961384-1.7455516.961384-.3015091 0-.5347731-.071204-.6966752-.2381683-.2005667-.2068378-.2936922-.5240336-.3430898-.9091611-.162283-1.2652348.2105392-3.2002432.6172078-5.3883716.4366657-2.3495308.9225572-4.9801565.9225572-7.4167917 0-2.4366353-.4858915-5.067261-.9225572-7.4167918-.4066686-2.1881284-.7794908-4.1231368-.6172078-5.3883716.0493976-.3851275.1425231-.7023233.3430898-.909161.1619021-.1669644.3951661-.2381684.6966752-.2381684z" transform="matrix(.81915204 .57357644 -.57357644 .81915204 20.313159 -7.447196)"/></g></g><text fill="#10162f" font-family="ApercuPro-Bold, Apercu Pro" font-size="6" font-weight="bold"><tspan x="9.035054" y="12.070475">50% OFF</tspan></text></g><g stroke="#ff8c00" transform="translate(482 122)"><path d="m48.4265535.5-7.2867564 53h-33.27959419l-7.28675645-53z"/><path d="m6 0 8 54"/><path d="m16 0 3 54"/><path d="m34 0-4 54"/><path d="m35 0 8 54" transform="matrix(-1 0 0 1 78 0)"/><path d="m24.5 0v54"/><path d="m7 47.5h35"/><path d="m6 40.5h37"/><path d="m5 34.5h39"/><path d="m4 27.5h41"/><path d="m3 20.5h43"/><path d="m2 14.5h44"/><path d="m1 7.5h47"/></g><path d="m384 120h43v38h-43z" fill="#fff"/><circle cx="405.5" cy="141.5" fill="#ff8c00" r="11.5"/><path d="m405.5 130c6.351275 0 11.5 5.148725 11.5 11.5s-5.148725 11.5-11.5 11.5-11.5-5.148725-11.5-11.5 5.148725-11.5 11.5-11.5zm0 1c-5.79899 0-10.5 4.70101-10.5 10.5s4.70101 10.5 10.5 10.5 10.5-4.70101 10.5-10.5-4.70101-10.5-10.5-10.5z" fill="#10162f" fill-rule="nonzero"/><path d="m125.5 120c6.294922 2.258789 11.5-5.148725 11.5-11.5s-4.71875-13.90625-11.5-11.5c-6.446777-1.9931641-11.5 5.148725-11.5 11.5s5.419922 13.838867 11.5 11.5z" fill="#e91c11"/><path d="m197.5 97c5.274306-1.8715278 9.300926 2.2828709 10.830075 7.210014l.138043.47142c.347764 1.262454.531882 2.563993.531882 3.818566 0 6.351275-5.205078 13.758789-11.5 11.5-6.080078 2.338867-11.5-5.148725-11.5-11.5s5.053223-13.4931641 11.5-11.5zm10.5 11.5c0-6.668047-4.705821-12.2894014-9.943955-10.6319544l-.221635.0743821-.312744.1109738-.317043-.0980208c-5.179201-1.6012646-10.204623 4.0582593-10.204623 10.5446193 0 6.35789 5.175592 12.254261 9.939921 10.639397l.20105-.072723.346915-.133451.349856.125538c4.999475 1.793948 10.162258-4.049509 10.162258-10.558761z" fill="#10162f" fill-rule="nonzero"/><path d="m173.5 97c5.274306-1.8715278 9.300926 2.2828709 10.830075 7.210014l.138043.47142c.347764 1.262454.531882 2.563993.531882 3.818566 0 6.351275-5.205078 13.758789-11.5 11.5-6.080078 2.338867-11.5-5.148725-11.5-11.5s5.053223-13.4931641 11.5-11.5zm10.5 11.5c0-6.668047-4.705821-12.2894014-9.943955-10.6319544l-.221635.0743821-.312744.1109738-.317043-.0980208c-5.179201-1.6012646-10.204623 4.0582593-10.204623 10.5446193 0 6.35789 5.175592 12.254261 9.939921 10.639397l.20105-.072723.346915-.133451.349856.125538c4.999475 1.793948 10.162258-4.049509 10.162258-10.558761z" fill="#10162f" fill-rule="nonzero"/><path d="m183.5 106c6.294922 2.258789 11.5-5.148725 11.5-11.5 0-6.3512746-4.71875-13.90625-11.5-11.5-6.446777-1.9931641-11.5 5.1487254-11.5 11.5 0 6.351275 5.419922 13.838867 11.5 11.5z" fill="#e91c11"/><path d="m161.5 106c6.294922 2.258789 11.5-5.148725 11.5-11.5 0-6.3512746-4.71875-13.90625-11.5-11.5-6.446777-1.9931641-11.5 5.1487254-11.5 11.5 0 6.351275 5.419922 13.838867 11.5 11.5z" fill="#e91c11"/><path d="m183.5 83c5.274306-1.8715278 9.300926 2.2828709 10.830075 7.2100141l.138043.47142c.347764 1.2624538.531882 2.5639931.531882 3.8185659 0 6.351275-5.205078 13.758789-11.5 11.5-6.080078 2.338867-11.5-5.148725-11.5-11.5 0-6.3512746 5.053223-13.4931641 11.5-11.5zm10.5 11.5c0-6.668047-4.705821-12.2894014-9.943955-10.6319544l-.221635.0743821-.312744.1109738-.317043-.0980208c-5.179201-1.6012646-10.204623 4.0582595-10.204623 10.5446193 0 6.35789 5.175592 12.254261 9.939921 10.639397l.20105-.072723.346915-.133451.349856.125538c4.999475 1.793948 10.162258-4.049509 10.162258-10.558761z" fill="#10162f" fill-rule="nonzero"/><path d="m149.5 97c5.274306-1.8715278 9.300926 2.2828709 10.830075 7.210014l.138043.47142c.347764 1.262454.531882 2.563993.531882 3.818566 0 6.351275-5.205078 13.758789-11.5 11.5-6.080078 2.338867-11.5-5.148725-11.5-11.5s5.053223-13.4931641 11.5-11.5zm10.5 11.5c0-6.668047-4.705821-12.2894014-9.943955-10.6319544l-.221635.0743821-.312744.1109738-.317043-.0980208c-5.179201-1.6012646-10.204623 4.0582593-10.204623 10.5446193 0 6.35789 5.175592 12.254261 9.939921 10.639397l.20105-.072723.346915-.133451.349856.125538c4.999475 1.793948 10.162258-4.049509 10.162258-10.558761z" fill="#10162f" fill-rule="nonzero"/><path d="m149.5 120c6.294922 2.258789 11.5-5.148725 11.5-11.5s-4.71875-13.90625-11.5-11.5c-6.446777-1.9931641-11.5 5.148725-11.5 11.5s5.419922 13.838867 11.5 11.5z" fill="#e91c11"/><path d="m161.5 83c5.274306-1.8715278 9.300926 2.2828709 10.830075 7.2100141l.138043.47142c.347764 1.2624538.531882 2.5639931.531882 3.8185659 0 6.351275-5.205078 13.758789-11.5 11.5-6.080078 2.338867-11.5-5.148725-11.5-11.5 0-6.3512746 5.053223-13.4931641 11.5-11.5zm10.5 11.5c0-6.668047-4.705821-12.2894014-9.943955-10.6319544l-.221635.0743821-.312744.1109738-.317043-.0980208c-5.179201-1.6012646-10.204623 4.0582595-10.204623 10.5446193 0 6.35789 5.175592 12.254261 9.939921 10.639397l.20105-.072723.346915-.133451.349856.125538c4.999475 1.793948 10.162258-4.049509 10.162258-10.558761z" fill="#10162f" fill-rule="nonzero"/><path d="m125.5 97c5.274306-1.8715278 9.300926 2.2828709 10.830075 7.210014l.138043.47142c.347764 1.262454.531882 2.563993.531882 3.818566 0 6.351275-5.205078 13.758789-11.5 11.5-6.080078 2.338867-11.5-5.148725-11.5-11.5s5.053223-13.4931641 11.5-11.5zm10.5 11.5c0-6.668047-4.705821-12.2894014-9.943955-10.6319544l-.221635.0743821-.312744.1109738-.317043-.0980208c-5.179201-1.6012646-10.204623 4.0582593-10.204623 10.5446193 0 6.35789 5.175592 12.254261 9.939921 10.639397l.20105-.072723.346915-.133451.349856.125538c4.999475 1.793948 10.162258-4.049509 10.162258-10.558761z" fill="#10162f" fill-rule="nonzero"/><path d="m139.5 106c6.294922 2.258789 11.5-5.148725 11.5-11.5 0-6.3512746-4.71875-13.90625-11.5-11.5-6.446777-1.9931641-11.5 5.1487254-11.5 11.5 0 6.351275 5.419922 13.838867 11.5 11.5z" fill="#e91c11"/><path d="m108 103h108v73h-108z" fill="#10162f"/><path d="m172.5 91c6.294922 2.2587891 11.5-5.1487254 11.5-11.5s-4.71875-13.90625-11.5-11.5c-6.446777-1.9931641-11.5 5.1487254-11.5 11.5s5.419922 13.8388672 11.5 11.5z" fill="#e91c11"/><path d="m172.5 68c5.274306-1.8715278 9.300926 2.2828709 10.830075 7.2100141l.138043.47142c.347764 1.2624538.531882 2.5639931.531882 3.8185659 0 6.3512746-5.205078 13.7587891-11.5 11.5-6.080078 2.3388672-11.5-5.1487254-11.5-11.5s5.053223-13.4931641 11.5-11.5zm10.5 11.5c0-6.668047-4.705821-12.2894014-9.943955-10.6319544l-.221635.0743821-.312744.1109738-.317043-.0980208c-5.179201-1.6012646-10.204623 4.0582595-10.204623 10.5446193 0 6.35789 5.175592 12.2542606 9.939921 10.6393972l.20105-.0727235.346915-.1334503.349856.1255379c4.999475 1.7939473 10.162258-4.0495095 10.162258-10.5587613z" fill="#10162f" fill-rule="nonzero"/><path d="m139.5 83c5.274306-1.8715278 9.300926 2.2828709 10.830075 7.2100141l.138043.47142c.347764 1.2624538.531882 2.5639931.531882 3.8185659 0 6.351275-5.205078 13.758789-11.5 11.5-6.080078 2.338867-11.5-5.148725-11.5-11.5 0-6.3512746 5.053223-13.4931641 11.5-11.5zm10.5 11.5c0-6.668047-4.705821-12.2894014-9.943955-10.6319544l-.221635.0743821-.312744.1109738-.317043-.0980208c-5.179201-1.6012646-10.204623 4.0582595-10.204623 10.5446193 0 6.35789 5.175592 12.254261 9.939921 10.639397l.20105-.072723.346915-.133451.349856.125538c4.999475 1.793948 10.162258-4.049509 10.162258-10.558761z" fill="#10162f" fill-rule="nonzero"/><path d="m150.5 91c6.294922 2.2587891 11.5-5.1487254 11.5-11.5s-4.71875-13.90625-11.5-11.5c-6.446777-1.9931641-11.5 5.1487254-11.5 11.5s5.419922 13.8388672 11.5 11.5z" fill="#e91c11"/><path d="m150.5 68c5.274306-1.8715278 9.300926 2.2828709 10.830075 7.2100141l.138043.47142c.347764 1.2624538.531882 2.5639931.531882 3.8185659 0 6.3512746-5.205078 13.7587891-11.5 11.5-6.080078 2.3388672-11.5-5.1487254-11.5-11.5s5.053223-13.4931641 11.5-11.5zm10.5 11.5c0-6.668047-4.705821-12.2894014-9.943955-10.6319544l-.221635.0743821-.312744.1109738-.317043-.0980208c-5.179201-1.6012646-10.204623 4.0582595-10.204623 10.5446193 0 6.35789 5.175592 12.2542606 9.939921 10.6393972l.20105-.0727235.346915-.1334503.349856.1255379c4.999475 1.7939473 10.162258-4.0495095 10.162258-10.5587613z" fill="#10162f" fill-rule="nonzero"/><path d="m408.5 135c1.666667-1.584473 2.5-3.084473 2.5-4.5s-.833333-2.915527-2.5-4.5c-1.666667 1.584473-2.5 3.084473-2.5 4.5s.833333 2.915527 2.5 4.5z" fill="#008a27" transform="matrix(.5 .8660254 -.8660254 .5 317.266315 -288.521377)"/><path d="m408.5 126c1.666667 1.584473 2.5 3.084473 2.5 4.5s-.833333 2.915527-2.5 4.5c-1.666667-1.584473-2.5-3.084473-2.5-4.5s.833333-2.915527 2.5-4.5zm0 1.431-.146342.166349c-.915792 1.065615-1.353658 2.036187-1.353658 2.902651s.437866 1.837036 1.353658 2.902651l.145342.165349.147342-.165349c.854739-.994574 1.293152-1.906355 1.347808-2.727973l.00585-.174678c0-.866464-.437866-1.837036-1.353658-2.902651z" fill="#10162f" fill-rule="nonzero" transform="matrix(.5 .8660254 -.8660254 .5 317.266315 -288.521377)"/><path d="m140 120h43v38h-43z" fill="#fff"/><path d="m161.5 152c6.294922 2.258789 11.5-5.148725 11.5-11.5s-4.71875-13.90625-11.5-11.5c-6.446777-1.993164-11.5 5.148725-11.5 11.5s5.419922 13.838867 11.5 11.5z" fill="#e91c11"/><path d="m161.5 129c5.274306-1.871528 9.300926 2.282871 10.830075 7.210014l.138043.47142c.347764 1.262454.531882 2.563993.531882 3.818566 0 6.351275-5.205078 13.758789-11.5 11.5-6.080078 2.338867-11.5-5.148725-11.5-11.5s5.053223-13.493164 11.5-11.5zm10.5 11.5c0-6.668047-4.705821-12.289401-9.943955-10.631954l-.221635.074382-.312744.110974-.317043-.098021c-5.179201-1.601265-10.204623 4.058259-10.204623 10.544619 0 6.35789 5.175592 12.254261 9.939921 10.639397l.20105-.072723.346915-.133451.349856.125538c4.999475 1.793948 10.162258-4.049509 10.162258-10.558761z" fill="#10162f" fill-rule="nonzero"/><path d="m164.5 134c1.666667-1.584473 2.5-3.084473 2.5-4.5s-.833333-2.915527-2.5-4.5c-1.666667 1.584473-2.5 3.084473-2.5 4.5s.833333 2.915527 2.5 4.5z" fill="#008a27" transform="matrix(.5 .8660254 -.8660254 .5 194.40029 -77.711179)"/><path d="m164.5 125c1.666667 1.584473 2.5 3.084473 2.5 4.5s-.833333 2.915527-2.5 4.5c-1.666667-1.584473-2.5-3.084473-2.5-4.5s.833333-2.915527 2.5-4.5zm0 1.431-.146342.166349c-.915792 1.065615-1.353658 2.036187-1.353658 2.902651s.437866 1.837036 1.353658 2.902651l.146342.165349.146342-.165349c.854739-.994574 1.293152-1.906355 1.347808-2.727973l.00585-.174678c0-.866464-.437866-1.837036-1.353658-2.902651z" fill="#10162f" fill-rule="nonzero" transform="matrix(.5 .8660254 -.8660254 .5 194.40029 -77.711179)"/><path d="m279.670702 151c3.436439 0 6.222223-9.286241 6.222223-14s-2.785784-14-6.222223-14c-3.436438 0 0 7.680556 0 14s-3.436438 14 0 14z" fill="#ffd300" transform="matrix(.58778525 .80901699 -.80901699 .58778525 227.087373 -171.684064)"/><path d="m279.670702 123c1.773646 0 3.373964 2.473754 4.507394 5.51581l.206975.57658c.03356.097052.066646.194542.099249.292413l.189755.591326c.030636.09916.060772.198585.090398.298215l.171566.599792c.027551.100222.054575.200535.081062.300878l.152411.601978.139104.599945c.022051.099666.043529.199132.064427.298338l.118335.591664c.037072.195875.071747.390248.103953.582654l.089139.570852c.135984.940037.208455 1.819271.208455 2.579555s-.072471 1.639518-.208455 2.579555l-.089139.570852c-.032206.192406-.066881.386779-.103953.582654l-.118335.591664c-.020898.099206-.042376.198672-.064427.298338l-.139104.599945-.152411.601978c-.026487.100343-.053511.200656-.081062.300878l-.171566.599792c-.029626.09963-.059762.199055-.090398.298215l-.189755.591326c-.032603.097871-.065689.195361-.099249.292413l-.206975.57658c-1.13343 3.042056-2.733748 5.51581-4.507394 5.51581-1.230963 0-1.580042-.98552-1.521085-2.540977l.022966-.400498c.010306-.137297.023171-.278311.038322-.422802l.052032-.443663.064099-.463082.074518-.481057.083294-.497589.541443-2.967775.149106-.857047.094262-.577901.08823-.581446c.01411-.097123.027901-.194334.041338-.291602l.076095-.584058.06595-.583997.054158-.582492c.047713-.581258.075272-1.158094.075272-1.724014s-.027559-1.142756-.075272-1.724014l-.054158-.582492-.06595-.583997-.076095-.584058-.084596-.582678-.091452-.579854-.196888-1.145464-.49702-2.713231-.127717-.752133-.107973-.714935c-.010694-.07719-.02092-.153602-.030644-.229204l-.052032-.443663c-.015151-.144491-.028016-.285505-.038322-.422802l-.022966-.400498c-.058957-1.555457.290122-2.540977 1.521085-2.540977zm0 1c-.323677 0-.471858.146847-.514077.7621l-.01181.293295-.001419.169914c0 .092767.000722.181652.002529.269286l.008895.25876.016859.260278.026918.282053.05494.434512.080991.532185.144982.853918.551074 3.036977.121451.698213.105214.641354.091345.602024.079847.580226c.012482.095861.024583.191545.036353.287416.134981 1.099453.205908 2.099916.205908 3.037489s-.070927 1.938036-.205908 3.037489l-.074987.5759-.0853.588933-.097983.619498-.113037.667592-.13046.733216-.410044 2.247289-.218455 1.2677-.080991.532185-.05494.434512-.026918.282053-.016859.260278-.008895.25876-.00111.4392.01181.293295c.042219.615253.1904.7621.514077.7621.790723 0 1.680149-.982706 2.497841-2.484986l.231528-.442961c.11464-.22815.227485-.466003.338038-.712209l.217903-.50315c.035758-.085581.071225-.17199.106383-.259178l.207077-.532061.198757-.548336c.032383-.092612.064384-.185802.095982-.279521l.184619-.568246c.029917-.09563.059395-.191689.088416-.288125l.168494-.582756c.054238-.195497.1065-.392107.156639-.589428l.143902-.5937c.022873-.099173.045178-.198423.066898-.297702l.123138-.595607c.250927-1.289476.396608-2.566777.396608-3.722034s-.145681-2.432558-.396608-3.722034l-.123138-.595607c-.02172-.099279-.044025-.198529-.066898-.297702l-.143902-.5937c-.050139-.197321-.102401-.393931-.156639-.589428l-.168494-.582756-.179465-.573682c-.061552-.189449-.124785-.376986-.189552-.56221l-.198757-.548336-.207077-.532061c-.035158-.087188-.070625-.173597-.106383-.259178l-.217903-.50315c-.110553-.246206-.223398-.484059-.338038-.712209l-.231528-.442961c-.817692-1.50228-1.707118-2.484986-2.497841-2.484986z" fill="#10162f" fill-rule="nonzero" transform="matrix(.58778525 .80901699 -.80901699 .58778525 227.087373 -171.684064)"/><path d="m281.670702 153c3.436439 0 6.222223-9.286241 6.222223-14s-2.785784-14-6.222223-14c-3.436438 0 0 7.680556 0 14s-3.436438 14 0 14z" fill="#ffd300" transform="matrix(.70710678 .70710678 -.70710678 .70710678 181.474836 -160.11901)"/><path d="m281.670702 125c1.773646 0 3.373964 2.473754 4.507394 5.51581l.206975.57658c.03356.097052.066646.194542.099249.292413l.189755.591326c.030636.09916.060772.198585.090398.298215l.171566.599792c.027551.100222.054575.200535.081062.300878l.152411.601978.139104.599945c.022051.099666.043529.199132.064427.298338l.118335.591664c.037072.195875.071747.390248.103953.582654l.089139.570852c.135984.940037.208455 1.819271.208455 2.579555 0 2.632839-.869083 6.692158-2.235205 9.763087-1.079743 2.427174-2.469979 4.236913-3.987018 4.236913-1.230963 0-1.580042-.98552-1.521085-2.540977l.022966-.400498c.010306-.137297.023171-.278311.038322-.422802l.052032-.443663.064099-.463082.074518-.481057.083294-.497589.541443-2.967775.149106-.857047.094262-.577901.08823-.581446c.01411-.097123.027901-.194334.041338-.291602l.076095-.584058.06595-.583997.054158-.582492c.047713-.581258.075272-1.158094.075272-1.724014s-.027559-1.142756-.075272-1.724014l-.054158-.582492-.06595-.583997-.076095-.584058-.084596-.582678-.091452-.579854-.196888-1.145464-.49702-2.713231-.127717-.752133-.107973-.714935c-.010694-.07719-.02092-.153602-.030644-.229204l-.052032-.443663c-.015151-.144491-.028016-.285505-.038322-.422802l-.022966-.400498c-.058957-1.555457.290122-2.540977 1.521085-2.540977zm0 1c-.323677 0-.471858.146847-.514077.7621l-.01181.293295-.001419.169914c0 .092767.000722.181652.002529.269286l.008895.25876.016859.260278.026918.282053.05494.434512.080991.532185.144982.853918.551074 3.036977.121451.698213.105214.641354.091345.602024.079847.580226c.012482.095861.024583.191545.036353.287416.134981 1.099453.205908 2.099916.205908 3.037489s-.070927 1.938036-.205908 3.037489l-.074987.5759-.0853.588933-.097983.619498-.113037.667592-.13046.733216-.410044 2.247289-.218455 1.2677-.080991.532185-.05494.434512-.026918.282053-.016859.260278-.008895.25876-.00111.4392.01181.293295c.042219.615253.1904.7621.514077.7621.873194 0 2.032497-1.303621 3.073346-3.643365 1.267731-2.849756 2.148877-6.773216 2.148877-9.356635 0-1.155257-.145681-2.432558-.396608-3.722034l-.123138-.595607c-.02172-.099279-.044025-.198529-.066898-.297702l-.143902-.5937c-.050139-.197321-.102401-.393931-.156639-.589428l-.168494-.582756-.179465-.573682c-.061552-.189449-.124785-.376986-.189552-.56221l-.198757-.548336-.207077-.532061c-.035158-.087188-.070625-.173597-.106383-.259178l-.217903-.50315c-.110553-.246206-.223398-.484059-.338038-.712209l-.231528-.442961c-.817692-1.50228-1.707118-2.484986-2.497841-2.484986z" fill="#10162f" fill-rule="nonzero" transform="matrix(.70710678 .70710678 -.70710678 .70710678 181.474836 -160.11901)"/><path d="m283.670702 155c3.436439 0 6.222223-9.286241 6.222223-14s-2.785784-14-6.222223-14c-3.436438 0 0 7.680556 0 14s-3.436438 14 0 14z" fill="#ffd300" transform="matrix(.81915204 .57357644 -.57357644 .81915204 132.600077 -138.553715)"/><path d="m283.670702 127c1.773646 0 3.373964 2.473754 4.507394 5.51581l.206975.57658c.03356.097052.066646.194542.099249.292413l.189755.591326c.030636.09916.060772.198585.090398.298215l.171566.599792c.027551.100222.054575.200535.081062.300878l.152411.601978.139104.599945c.022051.099666.043529.199132.064427.298338l.118335.591664c.037072.195875.071747.390248.103953.582654l.089139.570852c.135984.940037.208455 1.819271.208455 2.579555s-.072471 1.639518-.208455 2.579555l-.089139.570852c-.032206.192406-.066881.386779-.103953.582654l-.118335.591664c-.020898.099206-.042376.198672-.064427.298338l-.139104.599945-.152411.601978c-.026487.100343-.053511.200656-.081062.300878l-.171566.599792c-.029626.09963-.059762.199055-.090398.298215l-.189755.591326c-.032603.097871-.065689.195361-.099249.292413l-.206975.57658c-1.13343 3.042056-2.733748 5.51581-4.507394 5.51581-1.230963 0-1.580042-.98552-1.521085-2.540977l.022966-.400498c.010306-.137297.023171-.278311.038322-.422802l.052032-.443663.064099-.463082.074518-.481057.083294-.497589.541443-2.967775.149106-.857047.094262-.577901.08823-.581446c.01411-.097123.027901-.194334.041338-.291602l.076095-.584058.06595-.583997.054158-.582492c.047713-.581258.075272-1.158094.075272-1.724014s-.027559-1.142756-.075272-1.724014l-.054158-.582492-.06595-.583997-.076095-.584058-.084596-.582678-.091452-.579854-.196888-1.145464-.49702-2.713231-.127717-.752133-.107973-.714935c-.010694-.07719-.02092-.153602-.030644-.229204l-.052032-.443663c-.015151-.144491-.028016-.285505-.038322-.422802l-.022966-.400498c-.058957-1.555457.290122-2.540977 1.521085-2.540977zm0 1c-.323677 0-.471858.146847-.514077.7621l-.01181.293295-.001419.169914c0 .092767.000722.181652.002529.269286l.008895.25876.016859.260278.026918.282053.05494.434512.080991.532185.144982.853918.551074 3.036977.121451.698213.105214.641354.091345.602024.079847.580226c.012482.095861.024583.191545.036353.287416.134981 1.099453.205908 2.099916.205908 3.037489s-.070927 1.938036-.205908 3.037489l-.074987.5759-.0853.588933-.097983.619498-.113037.667592-.13046.733216-.410044 2.247289-.218455 1.2677-.080991.532185-.05494.434512-.026918.282053-.016859.260278-.008895.25876-.00111.4392.01181.293295c.042219.615253.1904.7621.514077.7621.790723 0 1.680149-.982706 2.497841-2.484986l.231528-.442961c.11464-.22815.227485-.466003.338038-.712209l.217903-.50315c.035758-.085581.071225-.17199.106383-.259178l.207077-.532061.198757-.548336c.032383-.092612.064384-.185802.095982-.279521l.184619-.568246c.029917-.09563.059395-.191689.088416-.288125l.168494-.582756c.054238-.195497.1065-.392107.156639-.589428l.143902-.5937c.022873-.099173.045178-.198423.066898-.297702l.123138-.595607c.250927-1.289476.396608-2.566777.396608-3.722034s-.145681-2.432558-.396608-3.722034l-.123138-.595607c-.02172-.099279-.044025-.198529-.066898-.297702l-.143902-.5937c-.050139-.197321-.102401-.393931-.156639-.589428l-.168494-.582756-.179465-.573682c-.061552-.189449-.124785-.376986-.189552-.56221l-.198757-.548336-.207077-.532061c-.035158-.087188-.070625-.173597-.106383-.259178l-.217903-.50315c-.110553-.246206-.223398-.484059-.338038-.712209l-.231528-.442961c-.817692-1.50228-1.707118-2.484986-2.497841-2.484986z" fill="#10162f" fill-rule="nonzero" transform="matrix(.81915204 .57357644 -.57357644 .81915204 132.600077 -138.553715)"/></g></svg>